<svg width="32" height="16" viewBox="0 0 32 16" fill="none" xmlns="http://www.w3.org/2000/svg">
<path d="M0.334148 14.2969C0.334148 13.9003 0.373815 13.4356 0.453149 12.9029C0.532482 12.3589 0.645815 11.7809 0.793148 11.1689C0.951815 10.5569 1.13315 9.9166 1.33715 9.24794C1.55248 8.57927 1.79048 7.9106 2.05115 7.24194C2.27782 6.64127 2.53848 6.03494 2.83315 5.42294C3.13915 4.81094 3.46782 4.21027 3.81915 3.62094C4.17048 3.0316 4.53315 2.4706 4.90715 1.93794C5.29248 1.40527 5.67782 0.917937 6.06315 0.475937C6.24448 0.475937 6.43715 0.498603 6.64115 0.543937C6.85648 0.58927 7.06048 0.651604 7.25315 0.730937C7.45715 0.798937 7.63848 0.883937 7.79715 0.985937C7.96715 1.08794 8.10315 1.18994 8.20515 1.29194C7.35515 2.1646 6.59015 3.0486 5.91015 3.94394C5.23015 4.82794 4.69182 5.66094 4.29515 6.44294C4.07982 6.8736 3.88148 7.27594 3.70015 7.64994C3.53015 8.02394 3.37148 8.39794 3.22415 8.77194C3.07682 9.1346 2.94082 9.50294 2.81615 9.87694C2.70282 10.2396 2.59515 10.6249 2.49315 11.0329C4.66915 8.25627 6.28415 6.86794 7.33815 6.86794C7.63282 6.86794 7.95015 6.96427 8.29015 7.15694C8.63015 7.3496 8.93048 7.61027 9.19115 7.93894C8.83982 8.32427 8.47715 8.78894 8.10315 9.33294C7.72915 9.87694 7.38348 10.4266 7.06615 10.9819C6.76015 11.5259 6.50515 12.0359 6.30115 12.5119C6.10848 12.9766 6.01215 13.3223 6.01215 13.5489C6.01215 13.6623 6.02915 13.7416 6.06315 13.7869C6.09715 13.8209 6.17082 13.8379 6.28415 13.8379C6.45415 13.8379 6.59015 13.8153 6.69215 13.7699C6.79415 13.7246 6.85648 13.7019 6.87915 13.7019C6.93582 13.7926 6.96982 13.8549 6.98115 13.8889C6.99248 13.9229 6.99815 13.9513 6.99815 13.9739C6.99815 14.0193 6.93015 14.0873 6.79415 14.1779C6.65815 14.2573 6.49382 14.3423 6.30115 14.4329C6.11982 14.5123 5.93848 14.5859 5.75715 14.6539C5.57582 14.7219 5.43982 14.7559 5.34915 14.7559C5.23582 14.7559 5.12248 14.7219 5.00915 14.6539C4.89582 14.5973 4.79382 14.5179 4.70315 14.4159C4.62382 14.3139 4.55582 14.2006 4.49915 14.0759C4.45382 13.9513 4.43115 13.8209 4.43115 13.6849C4.43115 13.5149 4.47648 13.2656 4.56715 12.9369C4.66915 12.5969 4.80515 12.2059 4.97515 11.7639C5.14515 11.3106 5.34915 10.8176 5.58715 10.2849C5.82515 9.75227 6.08015 9.20827 6.35215 8.65294C6.35215 8.6076 6.32948 8.58494 6.28415 8.58494C6.25015 8.58494 6.15948 8.63027 6.01215 8.72094C5.87615 8.8116 5.74582 8.90227 5.62115 8.99294C5.21315 9.29894 4.79948 9.6786 4.38015 10.1319C3.97215 10.5739 3.56982 11.0613 3.17315 11.5939C2.78782 12.1266 2.41948 12.6933 2.06815 13.2939C1.72815 13.8833 1.43348 14.4783 1.18415 15.0789C1.15015 15.1583 1.09915 15.2319 1.03115 15.2999C0.963149 15.3679 0.906482 15.4019 0.861149 15.4019C0.827149 15.4019 0.776149 15.3623 0.708149 15.2829C0.651482 15.2036 0.594815 15.1016 0.538148 14.9769C0.492815 14.8636 0.447482 14.7446 0.402148 14.6199C0.356815 14.4953 0.334148 14.3876 0.334148 14.2969ZM13.7574 14.2119C13.542 14.0306 13.3947 13.8039 13.3154 13.5319C13.2474 13.2599 13.2134 13.0276 13.2134 12.8349C13.2134 12.5969 13.2417 12.3929 13.2984 12.2229C13.253 12.2229 13.151 12.3136 12.9924 12.4949C12.8337 12.6763 12.658 12.8916 12.4654 13.1409C12.284 13.3903 12.1027 13.6339 11.9214 13.8719C11.74 14.1099 11.604 14.2856 11.5134 14.3989C11.366 14.5576 11.2244 14.6823 11.0884 14.7729C10.9637 14.8636 10.8617 14.9146 10.7824 14.9259C10.601 14.9146 10.4084 14.8749 10.2044 14.8069C10.0117 14.7503 9.82471 14.6653 9.64338 14.5519C9.47338 14.4386 9.32038 14.3026 9.18438 14.1439C9.05971 13.9853 8.97471 13.8039 8.92938 13.5999C8.92938 13.2826 8.93504 13.0219 8.94638 12.8179C8.96904 12.6139 9.00871 12.3929 9.06538 12.1549C9.16738 11.7243 9.31471 11.2369 9.50738 10.6929C9.71138 10.1489 9.94371 9.61627 10.2044 9.09494C10.465 8.56227 10.754 8.06927 11.0714 7.61594C11.4 7.15127 11.7457 6.7886 12.1084 6.52794C12.2104 6.52794 12.3294 6.53927 12.4654 6.56194C12.6014 6.57327 12.7374 6.6016 12.8734 6.64694C13.0207 6.69227 13.1567 6.74894 13.2814 6.81694C13.4174 6.8736 13.5307 6.95294 13.6214 7.05494C13.5194 7.16827 13.2587 7.54794 12.8394 8.19394C12.4314 8.83994 11.9724 9.76927 11.4624 10.9819C11.4057 11.1066 11.3377 11.2879 11.2584 11.5259C11.179 11.7639 11.0997 12.0133 11.0204 12.2739C10.941 12.5346 10.873 12.7896 10.8164 13.0389C10.771 13.2883 10.7484 13.4866 10.7484 13.6339C10.7484 13.7246 10.7597 13.7926 10.7824 13.8379C10.8164 13.8833 10.8447 13.9173 10.8674 13.9399C11.0374 13.8719 11.2527 13.6849 11.5134 13.3789C11.774 13.0729 12.1367 12.6026 12.6014 11.9679C12.7147 11.8093 12.845 11.6279 12.9924 11.4239C13.151 11.2199 13.3097 11.0046 13.4684 10.7779C13.627 10.5399 13.7744 10.2963 13.9104 10.0469C14.0577 9.7976 14.1767 9.54827 14.2674 9.29894C14.3127 9.16294 14.3694 9.00427 14.4374 8.82294C14.5167 8.63027 14.6074 8.43194 14.7094 8.22794C14.8227 8.02394 14.9474 7.81994 15.0834 7.61594C15.2307 7.4006 15.4007 7.20227 15.5934 7.02094C15.7407 7.02094 15.8994 7.03794 16.0694 7.07194C16.2394 7.10594 16.398 7.15127 16.5454 7.20794C16.704 7.25327 16.84 7.30994 16.9534 7.37794C17.0667 7.4346 17.1517 7.49694 17.2084 7.56494C17.0044 8.0636 16.7777 8.5566 16.5284 9.04394C16.279 9.53127 16.0467 10.0129 15.8314 10.4889C15.616 10.9536 15.4347 11.4183 15.2874 11.8829C15.14 12.3476 15.0664 12.8009 15.0664 13.2429C15.0664 13.4809 15.0834 13.6906 15.1174 13.8719C15.1627 14.0419 15.208 14.1893 15.2534 14.3139C15.2987 14.4273 15.3384 14.5236 15.3724 14.6029C15.4177 14.6823 15.4404 14.7503 15.4404 14.8069C15.4404 14.8183 15.429 14.8353 15.4064 14.8579C15.395 14.8693 15.3837 14.8749 15.3724 14.8749C15.293 14.8749 15.191 14.8579 15.0664 14.8239C14.9417 14.7899 14.8 14.7389 14.6414 14.6709C14.494 14.6143 14.341 14.5463 14.1824 14.4669C14.035 14.3876 13.8934 14.3026 13.7574 14.2119ZM18.4704 8.07494C18.4137 8.00694 18.3627 7.86527 18.3174 7.64994C18.272 7.42327 18.2494 7.2306 18.2494 7.07194C18.544 7.0946 18.8274 7.11727 19.0994 7.13994C19.3714 7.15127 19.6207 7.1626 19.8474 7.17394C20.0174 6.83394 20.1987 6.4996 20.3914 6.17094C20.5954 5.83094 20.788 5.52494 20.9694 5.25294C21.162 4.9696 21.3377 4.7316 21.4964 4.53894C21.6664 4.34627 21.7967 4.2216 21.8874 4.16494C22.0007 4.16494 22.1424 4.1876 22.3124 4.23294C22.4937 4.26694 22.675 4.31794 22.8564 4.38594C23.0377 4.4426 23.202 4.50494 23.3494 4.57294C23.4967 4.64094 23.5987 4.70894 23.6554 4.77694C23.3154 5.2076 23.0207 5.60994 22.7714 5.98394C22.5334 6.3466 22.2727 6.76594 21.9894 7.24194C22.216 7.24194 22.4427 7.23627 22.6694 7.22494C22.9074 7.2136 23.1454 7.1966 23.3834 7.17394C23.44 7.2306 23.4854 7.30427 23.5194 7.39494C23.5534 7.47427 23.5704 7.55927 23.5704 7.64994C23.015 7.85394 22.3407 7.96727 21.5474 7.98994C21.264 8.53394 21.009 9.07794 20.7824 9.62194C20.567 10.1546 20.38 10.6703 20.2214 11.1689C20.074 11.6676 19.955 12.1379 19.8644 12.5799C19.785 13.0219 19.7454 13.4186 19.7454 13.7699C19.7454 14.2686 19.9324 14.5463 20.3064 14.6029C20.6464 14.5576 20.9694 14.4726 21.2754 14.3479C21.5814 14.2233 21.8534 14.0646 22.0914 13.8719C22.1594 13.9739 22.199 14.0589 22.2104 14.1269C22.1424 14.2289 22.0234 14.3479 21.8534 14.4839C21.6947 14.6199 21.519 14.7503 21.3264 14.8749C21.1337 15.0109 20.9467 15.1243 20.7654 15.2149C20.584 15.3056 20.448 15.3566 20.3574 15.3679C20.074 15.3566 19.7907 15.2943 19.5074 15.1809C19.224 15.0676 18.9634 14.9259 18.7254 14.7559C18.4987 14.5859 18.3117 14.3989 18.1644 14.1949C18.017 13.9796 17.9434 13.7699 17.9434 13.5659C17.9434 13.2939 17.9774 12.9539 18.0454 12.5459C18.1247 12.1266 18.2324 11.6733 18.3684 11.1859C18.5044 10.6986 18.663 10.1886 18.8444 9.65594C19.0257 9.12327 19.224 8.59627 19.4394 8.07494H18.4704ZM28.1529 13.3619C28.5269 13.3619 28.8159 13.4583 29.0199 13.6509C29.2353 13.8323 29.3429 14.0873 29.3429 14.4159C29.3429 14.5066 29.3316 14.5973 29.3089 14.6879C29.2976 14.7899 29.2806 14.8749 29.2579 14.9429C29.1106 14.9203 28.9463 14.8976 28.7649 14.8749C28.5836 14.8636 28.3683 14.8579 28.1189 14.8579C27.7789 14.8579 27.4276 14.8806 27.0649 14.9259C26.7136 14.9713 26.3679 15.0166 26.0279 15.0619C25.6879 15.1186 25.3593 15.1696 25.0419 15.2149C24.7246 15.2603 24.4299 15.2829 24.1579 15.2829C23.7159 15.2829 23.3363 15.1979 23.0189 15.0279C22.7016 14.8579 22.4863 14.6256 22.3729 14.3309C22.4183 14.2856 22.5259 14.2403 22.6959 14.1949C22.8773 14.1383 23.0926 14.0816 23.3419 14.0249C23.6026 13.9569 23.8916 13.8946 24.2089 13.8379C24.5376 13.7813 24.8719 13.7246 25.2119 13.6679C25.3706 12.9879 25.5463 12.2909 25.7389 11.5769C25.9429 10.8516 26.1469 10.1319 26.3509 9.41794C26.5663 8.6926 26.7873 7.9786 27.0139 7.27594C27.2406 6.57327 27.4673 5.89327 27.6939 5.23594C27.3086 5.41727 26.9063 5.66094 26.4869 5.96694C26.0789 6.2616 25.7276 6.53927 25.4329 6.79994C25.3083 6.73194 25.2459 6.57894 25.2459 6.34094C25.6653 5.77427 26.0903 5.26994 26.5209 4.82794C26.9516 4.38594 27.4276 3.9156 27.9489 3.41694C28.0736 3.29227 28.2209 3.1166 28.3909 2.88994C28.5723 2.66327 28.7253 2.4366 28.8499 2.20994C29.0086 2.25527 29.2069 2.30627 29.4449 2.36294C29.6829 2.40827 29.9153 2.4706 30.1419 2.54994C30.3799 2.61794 30.5896 2.70294 30.7709 2.80494C30.9636 2.90694 31.0939 3.02594 31.1619 3.16194C31.0146 3.2866 30.8786 3.41694 30.7539 3.55294C30.6406 3.68894 30.5386 3.83627 30.4479 3.99494C30.2213 4.40294 29.9549 4.97527 29.6489 5.71194C29.3543 6.43727 29.0483 7.23627 28.7309 8.10894C28.4249 8.97027 28.1133 9.87127 27.7959 10.8119C27.4899 11.7413 27.2123 12.6139 26.9629 13.4299C27.2009 13.4073 27.4163 13.3903 27.6089 13.3789C27.8129 13.3676 27.9943 13.3619 28.1529 13.3619Z" fill="black"/>
</svg>
