<svg width="36" height="20" viewBox="0 0 36 20" fill="none" xmlns="http://www.w3.org/2000/svg">
<path d="M5.273 12.7002C5.05767 12.5189 4.91033 12.2922 4.831 12.0202C4.763 11.7482 4.729 11.5159 4.729 11.3232C4.729 11.0852 4.75733 10.8812 4.814 10.7112C4.76867 10.7112 4.66667 10.8019 4.508 10.9832C4.34933 11.1646 4.17367 11.3799 3.981 11.6292C3.79967 11.8786 3.61833 12.1222 3.437 12.3602C3.25567 12.5982 3.11967 12.7739 3.029 12.8872C2.88167 13.0459 2.74 13.1706 2.604 13.2612C2.47933 13.3519 2.37733 13.4029 2.298 13.4142C2.11667 13.4029 1.924 13.3632 1.72 13.2952C1.52733 13.2386 1.34033 13.1536 1.159 13.0402C0.989 12.9269 0.836 12.7909 0.7 12.6322C0.575333 12.4736 0.490333 12.2922 0.445 12.0882C0.445 11.7709 0.450667 11.5102 0.462 11.3062C0.484667 11.1022 0.524333 10.8812 0.581 10.6432C0.683 10.2126 0.830333 9.72522 1.023 9.18122C1.227 8.63722 1.45933 8.10455 1.72 7.58322C1.98067 7.05055 2.26967 6.55755 2.587 6.10422C2.91567 5.63955 3.26133 5.27688 3.624 5.01622C3.726 5.01622 3.845 5.02755 3.981 5.05022C4.117 5.06155 4.253 5.08989 4.389 5.13522C4.53633 5.18055 4.67233 5.23722 4.797 5.30522C4.933 5.36189 5.04633 5.44122 5.137 5.54322C5.035 5.65655 4.77433 6.03622 4.355 6.68222C3.947 7.32822 3.488 8.25755 2.978 9.47022C2.92133 9.59489 2.85333 9.77622 2.774 10.0142C2.69467 10.2522 2.61533 10.5016 2.536 10.7622C2.45667 11.0229 2.38867 11.2779 2.332 11.5272C2.28667 11.7766 2.264 11.9749 2.264 12.1222C2.264 12.2129 2.27533 12.2809 2.298 12.3262C2.332 12.3716 2.36033 12.4056 2.383 12.4282C2.553 12.3602 2.76833 12.1732 3.029 11.8672C3.28967 11.5612 3.65233 11.0909 4.117 10.4562C4.23033 10.2976 4.36067 10.1162 4.508 9.91222C4.66667 9.70822 4.82533 9.49289 4.984 9.26622C5.14267 9.02822 5.29 8.78455 5.426 8.53522C5.57333 8.28589 5.69233 8.03655 5.783 7.78722C5.82833 7.65122 5.885 7.49255 5.953 7.31122C6.03233 7.11855 6.123 6.92022 6.225 6.71622C6.33833 6.51222 6.463 6.30822 6.599 6.10422C6.74633 5.88889 6.91633 5.69055 7.109 5.50922C7.25633 5.50922 7.415 5.52622 7.585 5.56022C7.755 5.59422 7.91367 5.63955 8.061 5.69622C8.21967 5.74155 8.35567 5.79822 8.469 5.86622C8.58233 5.92288 8.66733 5.98522 8.724 6.05322C8.52 6.55189 8.29333 7.04489 8.044 7.53222C7.79467 8.01955 7.56233 8.50122 7.347 8.97722C7.13167 9.44189 6.95033 9.90655 6.803 10.3712C6.65567 10.8359 6.582 11.2892 6.582 11.7312C6.582 11.9692 6.599 12.1789 6.633 12.3602C6.67833 12.5302 6.72367 12.6776 6.769 12.8022C6.81433 12.9156 6.854 13.0119 6.888 13.0912C6.93333 13.1706 6.956 13.2386 6.956 13.2952C6.956 13.3066 6.94467 13.3236 6.922 13.3462C6.91067 13.3576 6.89933 13.3632 6.888 13.3632C6.80867 13.3632 6.70667 13.3462 6.582 13.3122C6.45733 13.2782 6.31567 13.2272 6.157 13.1592C6.00967 13.1026 5.85667 13.0346 5.698 12.9552C5.55067 12.8759 5.409 12.7909 5.273 12.7002ZM15.375 10.4392C15.1143 11.2666 14.8537 12.0202 14.593 12.7002C14.3323 13.3802 14.0547 14.0036 13.76 14.5702C13.4653 15.1482 13.148 15.6752 12.808 16.1512C12.468 16.6386 12.094 17.0976 11.686 17.5282C11.1647 18.0722 10.6263 18.4859 10.071 18.7692C9.51565 19.0639 8.96032 19.2112 8.40498 19.2112C8.12165 19.2112 7.83832 19.1772 7.55498 19.1092C7.28298 19.0526 7.02798 18.9676 6.78998 18.8542C6.54065 18.7522 6.32532 18.6276 6.14398 18.4802C5.95132 18.3442 5.81532 18.1969 5.73598 18.0382C5.73598 17.9022 5.81532 17.7832 5.97398 17.6812C6.10998 17.8059 6.22332 17.9022 6.31398 17.9702C6.40465 18.0382 6.49532 18.0949 6.58598 18.1402C6.66532 18.1856 6.75598 18.2139 6.85798 18.2252C6.94865 18.2366 7.05632 18.2422 7.18098 18.2422C7.82698 18.2422 8.45598 18.0496 9.06798 17.6642C9.69132 17.2902 10.275 16.7519 10.819 16.0492C11.3743 15.3579 11.8787 14.5136 12.332 13.5162C12.7853 12.5302 13.1707 11.4252 13.488 10.2012C13.3407 10.4279 13.1593 10.7056 12.944 11.0342C12.7287 11.3629 12.4907 11.6916 12.23 12.0202C11.9693 12.3376 11.6973 12.6266 11.414 12.8872C11.142 13.1479 10.8757 13.3236 10.615 13.4142C10.4337 13.4029 10.241 13.3632 10.037 13.2952C9.84432 13.2386 9.65732 13.1536 9.47598 13.0402C9.30598 12.9269 9.15298 12.7909 9.01698 12.6322C8.88098 12.4736 8.79032 12.2922 8.74498 12.0882C8.74498 11.7596 8.75632 11.4989 8.77898 11.3062C8.80165 11.1022 8.84132 10.8812 8.89798 10.6432C8.99998 10.2126 9.14732 9.72522 9.33998 9.18122C9.54398 8.63722 9.77632 8.10455 10.037 7.58322C10.309 7.05055 10.6037 6.55755 10.921 6.10422C11.2497 5.63955 11.5897 5.27688 11.941 5.01622C12.0317 5.01622 12.145 5.02755 12.281 5.05022C12.417 5.06155 12.5587 5.08989 12.706 5.13522C12.8533 5.18055 12.995 5.23722 13.131 5.30522C13.267 5.36189 13.386 5.44122 13.488 5.54322C13.3633 5.65655 13.0913 6.03622 12.672 6.68222C12.2527 7.32822 11.788 8.25755 11.278 9.47022C11.2213 9.59489 11.1533 9.77622 11.074 10.0142C10.9947 10.2522 10.9153 10.5016 10.836 10.7622C10.768 11.0229 10.7057 11.2779 10.649 11.5272C10.5923 11.7766 10.564 11.9749 10.564 12.1222C10.564 12.2129 10.5753 12.2809 10.598 12.3262C10.632 12.3716 10.6603 12.4056 10.683 12.4282C10.887 12.3942 11.159 12.2299 11.499 11.9352C11.839 11.6292 12.2243 11.1589 12.655 10.5242C12.927 10.1162 13.1763 9.71389 13.403 9.31722C13.6297 8.90922 13.8507 8.50122 14.066 8.09322C14.2927 7.68522 14.525 7.26589 14.763 6.83522C15.001 6.40455 15.256 5.96255 15.528 5.50922C15.6753 5.50922 15.834 5.52622 16.004 5.56022C16.174 5.59422 16.3383 5.63955 16.497 5.69622C16.6557 5.74155 16.7917 5.79822 16.905 5.86622C17.0297 5.92288 17.1203 5.98522 17.177 6.05322C16.8257 6.80122 16.497 7.53222 16.191 8.24622C15.885 8.96022 15.613 9.69122 15.375 10.4392ZM17.3174 11.9352C17.3174 11.8332 17.323 11.7086 17.3344 11.5612C17.357 11.4026 17.391 11.1986 17.4364 10.9492C17.4817 10.6886 17.5384 10.3769 17.6064 10.0142C17.6857 9.65155 17.782 9.21522 17.8954 8.70522C17.918 8.59189 17.969 8.41055 18.0484 8.16122C18.1277 7.91189 18.2297 7.65122 18.3544 7.37922C18.4904 7.09589 18.649 6.82389 18.8304 6.56322C19.023 6.30255 19.2497 6.10989 19.5104 5.98522C19.703 6.03055 19.958 6.14955 20.2754 6.34222C20.5927 6.52355 20.8647 6.77855 21.0914 7.10722C20.8307 7.40189 20.6097 7.69655 20.4284 7.99122C20.2584 8.28589 20.0997 8.59189 19.9524 8.90922C19.8164 9.22655 19.686 9.55522 19.5614 9.89522C19.448 10.2352 19.3177 10.5922 19.1704 10.9662C19.0457 11.2836 18.9324 11.6122 18.8304 11.9522C18.7284 12.2809 18.6717 12.5699 18.6604 12.8192C18.6604 13.0232 18.6547 13.1649 18.6434 13.2442C18.6434 13.3349 18.615 13.3802 18.5584 13.3802C18.513 13.3802 18.4224 13.3519 18.2864 13.2952C18.1504 13.2386 18.0087 13.1536 17.8614 13.0402C17.7254 12.9156 17.6007 12.7626 17.4874 12.5812C17.374 12.3999 17.3174 12.1846 17.3174 11.9352ZM20.5644 4.55722C20.5644 4.48922 20.5814 4.38722 20.6154 4.25122C20.5587 4.19455 20.5077 4.10955 20.4624 3.99622C20.4284 3.88288 20.4114 3.78088 20.4114 3.69022C20.4114 3.58822 20.4227 3.45222 20.4454 3.28222C20.4794 3.10089 20.519 2.90822 20.5644 2.70422C20.6097 2.50022 20.6664 2.29055 20.7344 2.07522C20.8024 1.84855 20.8704 1.64455 20.9384 1.46322C21.0744 1.46322 21.2387 1.50288 21.4314 1.58222C21.6354 1.65022 21.8394 1.74655 22.0434 1.87122C22.2474 1.98455 22.4344 2.11488 22.6044 2.26222C22.7744 2.39822 22.9047 2.52855 22.9954 2.65322C22.8707 2.77788 22.7064 2.95355 22.5024 3.18022C22.2984 3.39555 22.1 3.62789 21.9074 3.87722C21.7147 4.11522 21.539 4.34188 21.3804 4.55722C21.2217 4.77255 21.1197 4.92555 21.0744 5.01622C20.9384 4.99355 20.8194 4.93689 20.7174 4.84622C20.6154 4.74422 20.5644 4.64788 20.5644 4.55722ZM20.9099 12.7342C20.9666 12.4056 21.0629 11.9749 21.1989 11.4422C21.3463 10.8982 21.5163 10.3259 21.7089 9.72522C21.9016 9.11322 22.1056 8.50122 22.3209 7.88922C22.5363 7.27722 22.7459 6.72755 22.9499 6.24022C23.0973 5.88889 23.2276 5.61688 23.3409 5.42422C23.4543 5.22022 23.5789 5.05022 23.7149 4.91422C23.8736 4.93689 24.0379 4.97655 24.2079 5.03322C24.3779 5.08989 24.5423 5.15788 24.7009 5.23722C24.8596 5.31655 25.0013 5.40155 25.1259 5.49222C25.2506 5.57155 25.3469 5.65089 25.4149 5.73022C25.1089 6.09289 24.8369 6.50655 24.5989 6.97122C24.3723 7.43589 24.1399 8.03089 23.9019 8.75622C24.5139 8.21222 25.0523 7.69089 25.5169 7.19222C25.9929 6.69355 26.4349 6.13822 26.8429 5.52622C26.9109 5.46955 27.0299 5.44122 27.1999 5.44122C27.3586 5.44122 27.5116 5.46955 27.6589 5.52622C27.8063 5.57155 27.9083 5.63955 27.9649 5.73022C27.7609 6.27422 27.6589 6.81255 27.6589 7.34522C27.6589 7.84389 27.7326 8.21789 27.8799 8.46722C27.8686 8.53522 27.7893 8.66555 27.6419 8.85822C27.5059 9.05089 27.3529 9.23222 27.1829 9.40222C26.8769 9.24355 26.6049 9.02822 26.3669 8.75622C26.1289 8.47289 25.9533 8.16689 25.8399 7.83822C25.3073 8.21222 24.8539 8.58055 24.4799 8.94322C24.1059 9.29455 23.7829 9.69122 23.5109 10.1332C23.2503 10.5639 23.0236 11.0626 22.8309 11.6292C22.6496 12.1959 22.4739 12.8702 22.3039 13.6522C22.2019 13.6409 22.0773 13.6012 21.9299 13.5332C21.7939 13.4766 21.6523 13.4029 21.5049 13.3122C21.3689 13.2216 21.2443 13.1252 21.1309 13.0232C21.0176 12.9212 20.9439 12.8249 20.9099 12.7342ZM32.8834 11.8502C33.2574 11.8502 33.5464 11.9466 33.7504 12.1392C33.9657 12.3206 34.0734 12.5756 34.0734 12.9042C34.0734 12.9949 34.0621 13.0856 34.0394 13.1762C34.0281 13.2782 34.0111 13.3632 33.9884 13.4312C33.8411 13.4086 33.6767 13.3859 33.4954 13.3632C33.3141 13.3519 33.0987 13.3462 32.8494 13.3462C32.5094 13.3462 32.1581 13.3689 31.7954 13.4142C31.4441 13.4596 31.0984 13.5049 30.7584 13.5502C30.4184 13.6069 30.0897 13.6579 29.7724 13.7032C29.4551 13.7486 29.1604 13.7712 28.8884 13.7712C28.4464 13.7712 28.0667 13.6862 27.7494 13.5162C27.4321 13.3462 27.2167 13.1139 27.1034 12.8192C27.1487 12.7739 27.2564 12.7286 27.4264 12.6832C27.6077 12.6266 27.8231 12.5699 28.0724 12.5132C28.3331 12.4452 28.6221 12.3829 28.9394 12.3262C29.2681 12.2696 29.6024 12.2129 29.9424 12.1562C30.1011 11.4762 30.2767 10.7792 30.4694 10.0652C30.6734 9.33989 30.8774 8.62022 31.0814 7.90622C31.2967 7.18088 31.5177 6.46689 31.7444 5.76422C31.9711 5.06155 32.1977 4.38155 32.4244 3.72422C32.0391 3.90555 31.6367 4.14922 31.2174 4.45522C30.8094 4.74988 30.4581 5.02755 30.1634 5.28822C30.0387 5.22022 29.9764 5.06722 29.9764 4.82922C30.3957 4.26255 30.8207 3.75822 31.2514 3.31622C31.6821 2.87422 32.1581 2.40388 32.6794 1.90522C32.8041 1.78055 32.9514 1.60488 33.1214 1.37822C33.3027 1.15155 33.4557 0.924885 33.5804 0.698218C33.7391 0.743551 33.9374 0.794551 34.1754 0.851218C34.4134 0.896551 34.6457 0.958885 34.8724 1.03822C35.1104 1.10622 35.3201 1.19122 35.5014 1.29322C35.6941 1.39522 35.8244 1.51422 35.8924 1.65022C35.7451 1.77488 35.6091 1.90522 35.4844 2.04122C35.3711 2.17722 35.2691 2.32455 35.1784 2.48322C34.9517 2.89122 34.6854 3.46355 34.3794 4.20022C34.0847 4.92555 33.7787 5.72455 33.4614 6.59722C33.1554 7.45855 32.8437 8.35955 32.5264 9.30022C32.2204 10.2296 31.9427 11.1022 31.6934 11.9182C31.9314 11.8956 32.1467 11.8786 32.3394 11.8672C32.5434 11.8559 32.7247 11.8502 32.8834 11.8502Z" fill="black"/>
</svg>
