<svg width="200" height="100" viewBox="0 0 200 100" fill="none" xmlns="http://www.w3.org/2000/svg">
<rect width="200" height="100" rx="20" fill="#D9D9D9"/>
<path fill-rule="evenodd" clip-rule="evenodd" d="M71.1027 64.8438C65.4981 64.8438 60.9385 69.3307 60.9385 74.8468C60.9385 80.3623 65.4981 84.8499 71.1027 84.8499C76.7074 84.8499 81.2663 80.3623 81.2663 74.8468C81.2663 69.3307 76.7074 64.8438 71.1027 64.8438Z" fill="#FCB716"/>
<path fill-rule="evenodd" clip-rule="evenodd" d="M42.6997 64.8438C37.0951 64.8438 32.5361 69.3307 32.5361 74.8468C32.5361 80.3623 37.0951 84.8499 42.6997 84.8499C48.3037 84.8499 52.864 80.3623 52.864 74.8468C52.864 69.3307 48.3037 64.8438 42.6997 64.8438Z" fill="#EE363F"/>
<path fill-rule="evenodd" clip-rule="evenodd" d="M99.507 64.8438C93.9017 64.8438 89.3428 69.3307 89.3428 74.8468C89.3428 80.3623 93.9017 84.8499 99.507 84.8499C105.111 84.8499 109.671 80.3623 109.671 74.8468C109.671 69.3307 105.111 64.8438 99.507 64.8438Z" fill="#07AF56"/>
<path fill-rule="evenodd" clip-rule="evenodd" d="M156.311 64.8438C150.706 64.8438 146.147 69.3307 146.147 74.8468C146.147 80.3623 150.706 84.8499 156.311 84.8499C161.916 84.8499 166.475 80.3623 166.475 74.8468C166.475 69.3307 161.916 64.8438 156.311 64.8438Z" fill="#04A9DF"/>
<path fill-rule="evenodd" clip-rule="evenodd" d="M127.909 64.8438C122.304 64.8438 117.744 69.3307 117.744 74.8462C117.744 80.3623 122.304 84.8486 127.908 84.8486C133.513 84.8486 138.072 80.3623 138.072 74.8462C138.072 69.3307 133.514 64.8438 127.909 64.8438Z" fill="#A1479A"/>
<path fill-rule="evenodd" clip-rule="evenodd" d="M31 36.5017C31 30.0153 36.29 25.1186 42.8348 25.1186C49.424 25.1186 54.669 29.9717 54.669 36.4575V46.4285C54.669 47.4429 53.9523 48.149 52.8759 48.149C51.7553 48.149 51.0829 47.4429 51.0829 46.4285V43.5165H50.9037C49.5139 45.8545 46.7344 47.8841 42.61 47.8841C36.245 47.8841 31 43.031 31 36.5017ZM51.1728 36.5017C51.1728 31.825 47.586 28.2955 42.8348 28.2955C38.0824 28.2955 34.4962 31.825 34.4962 36.5017C34.4962 41.1778 38.0824 44.7079 42.8348 44.7079C47.586 44.7079 51.1728 41.1778 51.1728 36.5017ZM63.9054 55.2527C62.9639 54.8115 62.515 54.017 62.874 53.091C63.233 52.1195 64.1295 51.7232 65.0704 52.1644C66.6849 52.914 68.7015 53.4437 70.8529 53.4437C76.1885 53.4437 79.4156 50.3111 79.4156 44.9726V43.5163H79.2358C77.846 45.855 75.0678 47.8839 70.9428 47.8839C64.5771 47.8839 59.3321 43.0308 59.3321 36.5015C59.3321 30.0158 64.6221 25.1184 71.1676 25.1184C77.7574 25.1184 83.0024 29.9722 83.0024 36.4573V44.752C83.0024 51.8995 78.3393 56.7084 70.7187 56.7084C68.3881 56.7084 66.0568 56.2672 63.9054 55.2527ZM79.5049 36.5015C79.5049 31.8248 75.9187 28.2946 71.1676 28.2946C66.4158 28.2946 62.8297 31.8248 62.8297 36.5015C62.8297 41.1782 66.4158 44.7078 71.1676 44.7078C75.9187 44.7078 79.5049 41.1782 79.5049 36.5015ZM87.6648 36.5017C87.6648 30.0153 92.9105 25.1186 99.5003 25.1186C106.089 25.1186 111.335 30.0153 111.335 36.5017C111.335 42.9868 106.089 47.8841 99.5003 47.8841C92.9105 47.8841 87.6648 42.9868 87.6648 36.5017ZM107.838 36.5017C107.838 31.825 104.251 28.2955 99.5003 28.2955C94.7479 28.2955 91.1617 31.825 91.1617 36.5017C91.1617 41.1778 94.7479 44.7079 99.5003 44.7079C104.251 44.7079 107.838 41.1778 107.838 36.5017ZM115.998 36.5017C115.998 30.0153 121.197 25.1186 127.608 25.1186C131.732 25.1186 134.512 27.1482 135.902 29.4863H136.081V17.8826C136.081 16.8681 136.798 16.1621 137.874 16.1621C138.995 16.1621 139.667 16.8681 139.667 17.8826V36.5453C139.667 43.031 134.422 47.8841 127.833 47.8841C121.288 47.8841 115.998 42.9868 115.998 36.5017ZM136.171 36.5017C136.171 31.825 132.584 28.2955 127.833 28.2955C123.08 28.2955 119.494 31.825 119.494 36.5017C119.494 41.1778 123.08 44.7079 127.833 44.7079C132.584 44.7079 136.171 41.1778 136.171 36.5017ZM144.33 36.5017C144.33 30.0153 149.62 25.1186 156.165 25.1186C162.755 25.1186 168 29.9717 168 36.4575V46.4285C168 47.4429 167.283 48.149 166.207 48.149C165.086 48.149 164.413 47.4429 164.413 46.4285V43.5165H164.234C162.844 45.8545 160.065 47.8841 155.941 47.8841C149.575 47.8841 144.33 43.031 144.33 36.5017ZM164.503 36.5017C164.503 31.825 160.917 28.2955 156.165 28.2955C151.413 28.2955 147.827 31.825 147.827 36.5017C147.827 41.1778 151.413 44.7079 156.165 44.7079C160.917 44.7079 164.503 41.1778 164.503 36.5017Z" fill="white"/>
</svg>
