<svg width="200" height="100" viewBox="0 0 200 100" fill="none" xmlns="http://www.w3.org/2000/svg">
<rect width="200" height="100" rx="20" fill="#F25621"/>
<g clip-path="url(#clip0_437_3401)">
<rect width="100" height="100" transform="translate(50)" fill="#F25621"/>
<path d="M150 86.0814C150 93.7901 143.79 100 136.081 100H63.9186C56.2099 100 50 93.7901 50 86.0814V13.9186C50 6.20985 56.2099 0 63.9186 0H136.081C143.79 0 150 6.20985 150 13.9186V86.0814Z" fill="#F25621"/>
<path d="M132.763 15.9528H112.741C111.992 15.9528 111.349 16.5952 111.349 17.3447V35.2248H113.598C113.919 35.2248 114.133 35.5459 114.133 35.8672C114.133 35.9742 114.133 36.0813 114.026 36.1883L101.285 49.1434C100.857 49.6787 100.857 50.3211 101.285 50.8564L114.133 63.9185C114.24 64.0256 114.24 64.1327 114.24 64.2398C114.24 64.5609 114.026 64.7751 113.705 64.8822H111.456V82.7623C111.456 83.5116 112.099 84.154 112.848 84.154H132.87C133.619 84.154 134.262 83.5116 134.262 82.7623V17.2376C134.047 16.4881 133.512 15.9528 132.763 15.9528ZM86.0817 36.1883C85.8675 35.9742 85.8675 35.5459 86.0817 35.3319C86.1888 35.2248 86.2958 35.1177 86.5099 35.1177H88.7583V17.2376C88.7583 16.4881 88.1159 15.8457 87.3665 15.8457H67.345C66.5955 15.8457 65.9531 16.4881 65.9531 17.2376V82.6552C65.9531 83.4047 66.5955 84.0471 67.345 84.0471H87.3665C88.1159 84.0471 88.7583 83.4047 88.7583 82.6552V64.8822H86.5099C86.1888 64.8822 85.8675 64.5609 85.9746 64.2398C85.9746 64.1327 86.0817 63.9185 86.1888 63.8114L98.9296 50.8564C99.3579 50.3211 99.3579 49.6787 98.9296 49.1434L86.0817 36.1883Z" fill="white"/>
</g>
<defs>
<clipPath id="clip0_437_3401">
<rect width="100" height="100" fill="white" transform="translate(50)"/>
</clipPath>
</defs>
</svg>
