<svg width="200" height="100" viewBox="0 0 200 100" fill="none" xmlns="http://www.w3.org/2000/svg">
<g clip-path="url(#clip0_437_3406)">
<rect width="200" height="100" rx="20" fill="#34E0A1"/>
<path d="M100 100C127.614 100 150 77.6142 150 50C150 22.3858 127.614 0 100 0C72.3858 0 50 22.3858 50 50C50 77.6142 72.3858 100 100 100Z" fill="#34E0A1"/>
<path d="M130.882 40.246L136.916 33.6817H123.536C116.838 29.1062 108.748 26.4414 99.9998 26.4414C91.2622 26.4414 83.1953 29.1119 76.5081 33.6817H63.0947L69.1283 40.246C65.43 43.6202 63.1115 48.4806 63.1115 53.8773C63.1115 64.0617 71.3686 72.3186 81.553 72.3186C86.391 72.3186 90.7987 70.4527 94.0893 67.4024L99.9999 73.8382L105.911 67.408C109.201 70.4583 113.603 72.3186 118.441 72.3186C128.626 72.3186 136.894 64.0617 136.894 53.8773C136.899 48.475 134.581 43.6147 130.882 40.246ZM81.5585 66.3577C74.6645 66.3577 69.0781 60.7712 69.0781 53.8773C69.0781 46.9834 74.6647 41.3968 81.5585 41.3968C88.4523 41.3968 94.0388 46.9834 94.0388 53.8773C94.0388 60.7712 88.4523 66.3577 81.5585 66.3577ZM100.005 53.5142C100.005 45.3018 94.0334 38.2516 86.1506 35.2403C90.4132 33.4581 95.0892 32.4693 99.9998 32.4693C104.91 32.4693 109.592 33.4581 113.855 35.2403C105.978 38.2572 100.005 45.3019 100.005 53.5142ZM118.447 66.3577C111.553 66.3577 105.966 60.7712 105.966 53.8773C105.966 46.9834 111.553 41.3968 118.447 41.3968C125.341 41.3968 130.927 46.9834 130.927 53.8773C130.927 60.7712 125.341 66.3577 118.447 66.3577ZM118.447 47.3297C114.832 47.3297 111.905 50.2571 111.905 53.8717C111.905 57.4862 114.832 60.4136 118.447 60.4136C122.061 60.4136 124.989 57.4862 124.989 53.8717C124.989 50.2627 122.061 47.3297 118.447 47.3297ZM88.1003 53.8773C88.1003 57.4918 85.1729 60.4192 81.5585 60.4192C77.944 60.4192 75.0166 57.4918 75.0166 53.8773C75.0166 50.2627 77.944 47.3353 81.5585 47.3353C85.1729 47.3297 88.1003 50.2627 88.1003 53.8773Z" fill="black"/>
</g>
<defs>
<clipPath id="clip0_437_3406">
<rect width="200" height="100" rx="20" fill="white"/>
</clipPath>
</defs>
</svg>
