<svg width="32" height="15" viewBox="0 0 32 15" fill="none" xmlns="http://www.w3.org/2000/svg">
<path d="M0.716961 13.9024C0.716961 13.5057 0.756628 13.0411 0.835961 12.5084C0.915294 11.9644 1.02863 11.3864 1.17596 10.7744C1.33463 10.1624 1.51596 9.52207 1.71996 8.85341C1.93529 8.18474 2.17329 7.51607 2.43396 6.84741C2.66063 6.24674 2.92129 5.64041 3.21596 5.02841C3.52196 4.41641 3.85063 3.81574 4.20196 3.22641C4.55329 2.63707 4.91596 2.07607 5.28996 1.54341C5.67529 1.01074 6.06063 0.523406 6.44596 0.0814055C6.62729 0.0814055 6.81996 0.104072 7.02396 0.149406C7.23929 0.194739 7.44329 0.257072 7.63596 0.336405C7.83996 0.404406 8.02129 0.489406 8.17996 0.591406C8.34996 0.693406 8.48596 0.795406 8.58796 0.897405C7.73796 1.77007 6.97296 2.65407 6.29296 3.54941C5.61296 4.43341 5.07463 5.26641 4.67796 6.04841C4.46263 6.47907 4.26429 6.88141 4.08296 7.25541C3.91296 7.62941 3.75429 8.00341 3.60696 8.37741C3.45963 8.74007 3.32363 9.10841 3.19896 9.48241C3.08563 9.84507 2.97796 10.2304 2.87596 10.6384C5.05196 7.86174 6.66696 6.47341 7.72096 6.47341C8.01563 6.47341 8.33296 6.56974 8.67296 6.76241C9.01296 6.95507 9.31329 7.21574 9.57396 7.54441C9.22263 7.92974 8.85996 8.39441 8.48596 8.93841C8.11196 9.48241 7.76629 10.0321 7.44896 10.5874C7.14296 11.1314 6.88796 11.6414 6.68396 12.1174C6.49129 12.5821 6.39496 12.9277 6.39496 13.1544C6.39496 13.2677 6.41196 13.3471 6.44596 13.3924C6.47996 13.4264 6.55363 13.4434 6.66696 13.4434C6.83696 13.4434 6.97296 13.4207 7.07496 13.3754C7.17696 13.3301 7.23929 13.3074 7.26196 13.3074C7.31863 13.3981 7.35263 13.4604 7.36396 13.4944C7.37529 13.5284 7.38096 13.5567 7.38096 13.5794C7.38096 13.6247 7.31296 13.6927 7.17696 13.7834C7.04096 13.8627 6.87663 13.9477 6.68396 14.0384C6.50263 14.1177 6.32129 14.1914 6.13996 14.2594C5.95863 14.3274 5.82263 14.3614 5.73196 14.3614C5.61863 14.3614 5.50529 14.3274 5.39196 14.2594C5.27863 14.2027 5.17663 14.1234 5.08596 14.0214C5.00663 13.9194 4.93863 13.8061 4.88196 13.6814C4.83663 13.5567 4.81396 13.4264 4.81396 13.2904C4.81396 13.1204 4.85929 12.8711 4.94996 12.5424C5.05196 12.2024 5.18796 11.8114 5.35796 11.3694C5.52796 10.9161 5.73196 10.4231 5.96996 9.89041C6.20796 9.35774 6.46296 8.81374 6.73496 8.25841C6.73496 8.21307 6.71229 8.19041 6.66696 8.19041C6.63296 8.19041 6.54229 8.23574 6.39496 8.32641C6.25896 8.41707 6.12863 8.50774 6.00396 8.59841C5.59596 8.90441 5.18229 9.28407 4.76296 9.73741C4.35496 10.1794 3.95263 10.6667 3.55596 11.1994C3.17063 11.7321 2.80229 12.2987 2.45096 12.8994C2.11096 13.4887 1.81629 14.0837 1.56696 14.6844C1.53296 14.7637 1.48196 14.8374 1.41396 14.9054C1.34596 14.9734 1.28929 15.0074 1.24396 15.0074C1.20996 15.0074 1.15896 14.9677 1.09096 14.8884C1.03429 14.8091 0.977628 14.7071 0.920961 14.5824C0.875628 14.4691 0.830294 14.3501 0.784961 14.2254C0.739628 14.1007 0.716961 13.9931 0.716961 13.9024ZM14.1402 13.8174C13.9249 13.6361 13.7775 13.4094 13.6982 13.1374C13.6302 12.8654 13.5962 12.6331 13.5962 12.4404C13.5962 12.2024 13.6245 11.9984 13.6812 11.8284C13.6359 11.8284 13.5339 11.9191 13.3752 12.1004C13.2165 12.2817 13.0409 12.4971 12.8482 12.7464C12.6669 12.9957 12.4855 13.2394 12.3042 13.4774C12.1229 13.7154 11.9869 13.8911 11.8962 14.0044C11.7489 14.1631 11.6072 14.2877 11.4712 14.3784C11.3465 14.4691 11.2445 14.5201 11.1652 14.5314C10.9839 14.5201 10.7912 14.4804 10.5872 14.4124C10.3945 14.3557 10.2075 14.2707 10.0262 14.1574C9.85619 14.0441 9.70319 13.9081 9.56719 13.7494C9.44252 13.5907 9.35752 13.4094 9.31219 13.2054C9.31219 12.8881 9.31785 12.6274 9.32919 12.4234C9.35185 12.2194 9.39152 11.9984 9.44819 11.7604C9.55019 11.3297 9.69752 10.8424 9.89019 10.2984C10.0942 9.75441 10.3265 9.22174 10.5872 8.70041C10.8479 8.16774 11.1369 7.67474 11.4542 7.22141C11.7829 6.75674 12.1285 6.39407 12.4912 6.13341C12.5932 6.13341 12.7122 6.14474 12.8482 6.16741C12.9842 6.17874 13.1202 6.20707 13.2562 6.25241C13.4035 6.29774 13.5395 6.35441 13.6642 6.42241C13.8002 6.47907 13.9135 6.55841 14.0042 6.66041C13.9022 6.77374 13.6415 7.15341 13.2222 7.79941C12.8142 8.44541 12.3552 9.37474 11.8452 10.5874C11.7885 10.7121 11.7205 10.8934 11.6412 11.1314C11.5619 11.3694 11.4825 11.6187 11.4032 11.8794C11.3239 12.1401 11.2559 12.3951 11.1992 12.6444C11.1539 12.8937 11.1312 13.0921 11.1312 13.2394C11.1312 13.3301 11.1425 13.3981 11.1652 13.4434C11.1992 13.4887 11.2275 13.5227 11.2502 13.5454C11.4202 13.4774 11.6355 13.2904 11.8962 12.9844C12.1569 12.6784 12.5195 12.2081 12.9842 11.5734C13.0975 11.4147 13.2279 11.2334 13.3752 11.0294C13.5339 10.8254 13.6925 10.6101 13.8512 10.3834C14.0099 10.1454 14.1572 9.90174 14.2932 9.65241C14.4405 9.40307 14.5595 9.15374 14.6502 8.90441C14.6955 8.76841 14.7522 8.60974 14.8202 8.42841C14.8995 8.23574 14.9902 8.03741 15.0922 7.83341C15.2055 7.62941 15.3302 7.42541 15.4662 7.22141C15.6135 7.00607 15.7835 6.80774 15.9762 6.62641C16.1235 6.62641 16.2822 6.64341 16.4522 6.67741C16.6222 6.71141 16.7809 6.75674 16.9282 6.81341C17.0869 6.85874 17.2229 6.91541 17.3362 6.98341C17.4495 7.04007 17.5345 7.10241 17.5912 7.17041C17.3872 7.66907 17.1605 8.16207 16.9112 8.64941C16.6619 9.13674 16.4295 9.61841 16.2142 10.0944C15.9989 10.5591 15.8175 11.0237 15.6702 11.4884C15.5229 11.9531 15.4492 12.4064 15.4492 12.8484C15.4492 13.0864 15.4662 13.2961 15.5002 13.4774C15.5455 13.6474 15.5909 13.7947 15.6362 13.9194C15.6815 14.0327 15.7212 14.1291 15.7552 14.2084C15.8005 14.2877 15.8232 14.3557 15.8232 14.4124C15.8232 14.4237 15.8119 14.4407 15.7892 14.4634C15.7779 14.4747 15.7665 14.4804 15.7552 14.4804C15.6759 14.4804 15.5739 14.4634 15.4492 14.4294C15.3245 14.3954 15.1829 14.3444 15.0242 14.2764C14.8769 14.2197 14.7239 14.1517 14.5652 14.0724C14.4179 13.9931 14.2762 13.9081 14.1402 13.8174ZM18.8532 7.68041C18.7965 7.61241 18.7455 7.47074 18.7002 7.25541C18.6548 7.02874 18.6322 6.83607 18.6322 6.67741C18.9268 6.70007 19.2102 6.72274 19.4822 6.74541C19.7542 6.75674 20.0035 6.76807 20.2302 6.77941C20.4002 6.43941 20.5815 6.10507 20.7742 5.77641C20.9782 5.43641 21.1708 5.13041 21.3522 4.85841C21.5448 4.57507 21.7205 4.33707 21.8792 4.14441C22.0492 3.95174 22.1795 3.82707 22.2702 3.77041C22.3835 3.77041 22.5252 3.79307 22.6952 3.83841C22.8765 3.87241 23.0578 3.92341 23.2392 3.99141C23.4205 4.04807 23.5848 4.11041 23.7322 4.17841C23.8795 4.24641 23.9815 4.31441 24.0382 4.38241C23.6982 4.81307 23.4035 5.21541 23.1542 5.58941C22.9162 5.95207 22.6555 6.37141 22.3722 6.84741C22.5988 6.84741 22.8255 6.84174 23.0522 6.83041C23.2902 6.81907 23.5282 6.80207 23.7662 6.77941C23.8228 6.83607 23.8682 6.90974 23.9022 7.00041C23.9362 7.07974 23.9532 7.16474 23.9532 7.25541C23.3978 7.45941 22.7235 7.57274 21.9302 7.59541C21.6468 8.13941 21.3918 8.68341 21.1652 9.22741C20.9498 9.76007 20.7628 10.2757 20.6042 10.7744C20.4568 11.2731 20.3378 11.7434 20.2472 12.1854C20.1678 12.6274 20.1282 13.0241 20.1282 13.3754C20.1282 13.8741 20.3152 14.1517 20.6892 14.2084C21.0292 14.1631 21.3522 14.0781 21.6582 13.9534C21.9642 13.8287 22.2362 13.6701 22.4742 13.4774C22.5422 13.5794 22.5818 13.6644 22.5932 13.7324C22.5252 13.8344 22.4062 13.9534 22.2362 14.0894C22.0775 14.2254 21.9018 14.3557 21.7092 14.4804C21.5165 14.6164 21.3295 14.7297 21.1482 14.8204C20.9668 14.9111 20.8308 14.9621 20.7402 14.9734C20.4568 14.9621 20.1735 14.8997 19.8902 14.7864C19.6068 14.6731 19.3462 14.5314 19.1082 14.3614C18.8815 14.1914 18.6945 14.0044 18.5472 13.8004C18.3998 13.5851 18.3262 13.3754 18.3262 13.1714C18.3262 12.8994 18.3602 12.5594 18.4282 12.1514C18.5075 11.7321 18.6152 11.2787 18.7512 10.7914C18.8872 10.3041 19.0458 9.79407 19.2272 9.26141C19.4085 8.72874 19.6068 8.20174 19.8222 7.68041H18.8532ZM28.5357 12.9674C28.9097 12.9674 29.1987 13.0637 29.4027 13.2564C29.6181 13.4377 29.7257 13.6927 29.7257 14.0214C29.7257 14.1121 29.7144 14.2027 29.6917 14.2934C29.6804 14.3954 29.6634 14.4804 29.6407 14.5484C29.4934 14.5257 29.3291 14.5031 29.1477 14.4804C28.9664 14.4691 28.7511 14.4634 28.5017 14.4634C28.1617 14.4634 27.8104 14.4861 27.4477 14.5314C27.0964 14.5767 26.7507 14.6221 26.4107 14.6674C26.0707 14.7241 25.7421 14.7751 25.4247 14.8204C25.1074 14.8657 24.8127 14.8884 24.5407 14.8884C24.0987 14.8884 23.7191 14.8034 23.4017 14.6334C23.0844 14.4634 22.8691 14.2311 22.7557 13.9364C22.8011 13.8911 22.9087 13.8457 23.0787 13.8004C23.2601 13.7437 23.4754 13.6871 23.7247 13.6304C23.9854 13.5624 24.2744 13.5001 24.5917 13.4434C24.9204 13.3867 25.2547 13.3301 25.5947 13.2734C25.7534 12.5934 25.9291 11.8964 26.1217 11.1824C26.3257 10.4571 26.5297 9.73741 26.7337 9.02341C26.9491 8.29807 27.1701 7.58407 27.3967 6.88141C27.6234 6.17874 27.8501 5.49874 28.0767 4.84141C27.6914 5.02274 27.2891 5.26641 26.8697 5.57241C26.4617 5.86707 26.1104 6.14474 25.8157 6.40541C25.6911 6.33741 25.6287 6.18441 25.6287 5.94641C26.0481 5.37974 26.4731 4.87541 26.9037 4.43341C27.3344 3.99141 27.8104 3.52107 28.3317 3.02241C28.4564 2.89774 28.6037 2.72207 28.7737 2.49541C28.9551 2.26874 29.1081 2.04207 29.2327 1.81541C29.3914 1.86074 29.5897 1.91174 29.8277 1.96841C30.0657 2.01374 30.2981 2.07607 30.5247 2.15541C30.7627 2.22341 30.9724 2.30841 31.1537 2.41041C31.3464 2.51241 31.4767 2.63141 31.5447 2.76741C31.3974 2.89207 31.2614 3.02241 31.1367 3.15841C31.0234 3.29441 30.9214 3.44174 30.8307 3.60041C30.6041 4.00841 30.3377 4.58074 30.0317 5.31741C29.7371 6.04274 29.4311 6.84174 29.1137 7.71441C28.8077 8.57574 28.4961 9.47674 28.1787 10.4174C27.8727 11.3467 27.5951 12.2194 27.3457 13.0354C27.5837 13.0127 27.7991 12.9957 27.9917 12.9844C28.1957 12.9731 28.3771 12.9674 28.5357 12.9674Z" fill="black"/>
</svg>
