<svg width="180" height="34" viewBox="0 0 180 34" fill="none" xmlns="http://www.w3.org/2000/svg">
<path d="M8.083 13.698C7.62967 13.698 7.27833 13.5733 7.029 13.324C6.791 13.0633 6.672 12.7517 6.672 12.389C6.672 12.2983 6.68333 12.1907 6.706 12.066C6.74 11.9413 6.77967 11.8337 6.825 11.743C6.97233 11.811 7.18767 11.862 7.471 11.896C7.76567 11.9187 8.10567 11.93 8.491 11.93C9.069 11.93 9.72067 11.9073 10.446 11.862C11.1827 11.8053 11.8853 11.7487 12.554 11.692C13.2227 11.6353 13.812 11.5843 14.322 11.539C14.832 11.4823 15.1607 11.454 15.308 11.454C15.7273 11.454 16.0277 11.6127 16.209 11.93C16.4017 12.236 16.5433 12.6497 16.634 13.171C16.3393 13.1483 16.0447 13.1313 15.75 13.12C15.4667 13.0973 15.223 13.086 15.019 13.086C14.6563 13.086 14.288 13.0973 13.914 13.12C13.5513 13.1427 13.183 13.1767 12.809 13.222C12.6503 13.5507 12.4747 13.9417 12.282 14.395C12.0893 14.837 11.8967 15.3017 11.704 15.789C11.5227 16.2763 11.347 16.7637 11.177 17.251C11.007 17.727 10.8597 18.1577 10.735 18.543C10.4857 19.291 10.2647 19.9823 10.072 20.617C9.89067 21.2517 9.72633 21.8467 9.579 22.402C9.443 22.946 9.324 23.4673 9.222 23.966C9.12 24.4647 9.02933 24.952 8.95 25.428C8.19067 25.3147 7.556 24.8387 7.046 24C7.13667 23.6487 7.24433 23.269 7.369 22.861C7.505 22.4417 7.658 21.9713 7.828 21.45C8.00933 20.9173 8.219 20.3167 8.457 19.648C8.695 18.9793 8.967 18.22 9.273 17.37C9.38633 17.0527 9.50533 16.724 9.63 16.384C9.75467 16.0327 9.87367 15.687 9.987 15.347C10.1117 15.007 10.2193 14.6783 10.31 14.361C10.412 14.0437 10.497 13.7547 10.565 13.494C10.089 13.5507 9.63567 13.6017 9.205 13.647C8.78567 13.681 8.41167 13.698 8.083 13.698ZM14.3771 23.711C14.3771 23.3143 14.4168 22.8497 14.4961 22.317C14.5755 21.773 14.6888 21.195 14.8361 20.583C14.9948 19.971 15.1761 19.3307 15.3801 18.662C15.5955 17.9933 15.8335 17.3247 16.0941 16.656C16.3208 16.0553 16.5815 15.449 16.8761 14.837C17.1821 14.225 17.5108 13.6243 17.8621 13.035C18.2135 12.4457 18.5761 11.8847 18.9501 11.352C19.3355 10.8193 19.7208 10.332 20.1061 9.89C20.2875 9.89 20.4801 9.91267 20.6841 9.958C20.8995 10.0033 21.1035 10.0657 21.2961 10.145C21.5001 10.213 21.6815 10.298 21.8401 10.4C22.0101 10.502 22.1461 10.604 22.2481 10.706C21.3981 11.5787 20.6331 12.4627 19.9531 13.358C19.2731 14.242 18.7348 15.075 18.3381 15.857C18.1228 16.2877 17.9245 16.69 17.7431 17.064C17.5731 17.438 17.4145 17.812 17.2671 18.186C17.1198 18.5487 16.9838 18.917 16.8591 19.291C16.7458 19.6537 16.6381 20.039 16.5361 20.447C18.7121 17.6703 20.3271 16.282 21.3811 16.282C21.6758 16.282 21.9931 16.3783 22.3331 16.571C22.6731 16.7637 22.9735 17.0243 23.2341 17.353C22.8828 17.7383 22.5201 18.203 22.1461 18.747C21.7721 19.291 21.4265 19.8407 21.1091 20.396C20.8031 20.94 20.5481 21.45 20.3441 21.926C20.1515 22.3907 20.0551 22.7363 20.0551 22.963C20.0551 23.0763 20.0721 23.1557 20.1061 23.201C20.1401 23.235 20.2138 23.252 20.3271 23.252C20.4971 23.252 20.6331 23.2293 20.7351 23.184C20.8371 23.1387 20.8995 23.116 20.9221 23.116C20.9788 23.2067 21.0128 23.269 21.0241 23.303C21.0355 23.337 21.0411 23.3653 21.0411 23.388C21.0411 23.4333 20.9731 23.5013 20.8371 23.592C20.7011 23.6713 20.5368 23.7563 20.3441 23.847C20.1628 23.9263 19.9815 24 19.8001 24.068C19.6188 24.136 19.4828 24.17 19.3921 24.17C19.2788 24.17 19.1655 24.136 19.0521 24.068C18.9388 24.0113 18.8368 23.932 18.7461 23.83C18.6668 23.728 18.5988 23.6147 18.5421 23.49C18.4968 23.3653 18.4741 23.235 18.4741 23.099C18.4741 22.929 18.5195 22.6797 18.6101 22.351C18.7121 22.011 18.8481 21.62 19.0181 21.178C19.1881 20.7247 19.3921 20.2317 19.6301 19.699C19.8681 19.1663 20.1231 18.6223 20.3951 18.067C20.3951 18.0217 20.3725 17.999 20.3271 17.999C20.2931 17.999 20.2025 18.0443 20.0551 18.135C19.9191 18.2257 19.7888 18.3163 19.6641 18.407C19.2561 18.713 18.8425 19.0927 18.4231 19.546C18.0151 19.988 17.6128 20.4753 17.2161 21.008C16.8308 21.5407 16.4625 22.1073 16.1111 22.708C15.7711 23.2973 15.4765 23.8923 15.2271 24.493C15.1931 24.5723 15.1421 24.646 15.0741 24.714C15.0061 24.782 14.9495 24.816 14.9041 24.816C14.8701 24.816 14.8191 24.7763 14.7511 24.697C14.6945 24.6177 14.6378 24.5157 14.5811 24.391C14.5358 24.2777 14.4905 24.1587 14.4451 24.034C14.3998 23.9093 14.3771 23.8017 14.3771 23.711ZM29.2623 16.962C29.217 17.6647 29.0923 18.271 28.8883 18.781C28.6843 19.2797 28.3897 19.7217 28.0043 20.107C27.6303 20.481 27.1713 20.821 26.6273 21.127C26.0833 21.433 25.4487 21.7277 24.7233 22.011C24.7233 22.079 24.7177 22.1527 24.7063 22.232C24.7063 22.3 24.7063 22.3737 24.7063 22.453C24.7063 22.6003 24.7177 22.7533 24.7403 22.912C24.763 23.0707 24.8027 23.218 24.8593 23.354C24.916 23.49 24.9953 23.6033 25.0973 23.694C25.1993 23.7733 25.3297 23.813 25.4883 23.813C25.7943 23.813 26.0947 23.745 26.3893 23.609C26.684 23.473 26.9617 23.3087 27.2223 23.116C27.4943 22.912 27.7437 22.6967 27.9703 22.47C28.2083 22.232 28.418 22.0167 28.5993 21.824C28.7127 21.926 28.809 22.0223 28.8883 22.113C28.3783 22.793 27.8173 23.3597 27.2053 23.813C26.6047 24.255 26.0323 24.5383 25.4883 24.663C24.7063 24.5723 24.0943 24.289 23.6523 23.813C23.2217 23.3257 23.0063 22.742 23.0063 22.062C23.0063 21.5973 23.0687 21.127 23.1933 20.651C23.3293 20.1637 23.5107 19.699 23.7373 19.257C23.9753 18.8037 24.2473 18.3787 24.5533 17.982C24.8707 17.5853 25.205 17.2397 25.5563 16.945C25.919 16.6503 26.2873 16.418 26.6613 16.248C27.0467 16.078 27.4263 15.993 27.8003 15.993C28.3217 16.061 28.809 16.384 29.2623 16.962ZM28.0893 17.523C27.7833 17.5683 27.466 17.693 27.1373 17.897C26.8087 18.101 26.497 18.373 26.2023 18.713C25.919 19.053 25.6583 19.4497 25.4203 19.903C25.1823 20.3563 24.9953 20.8437 24.8593 21.365C25.766 20.9117 26.5197 20.3563 27.1203 19.699C27.721 19.0303 28.044 18.305 28.0893 17.523ZM36.2256 23.031C36.5089 23.5183 36.6506 23.9887 36.6506 24.442C36.6506 24.544 36.6392 24.6347 36.6166 24.714C36.6052 24.8047 36.5882 24.8953 36.5656 24.986C36.3729 24.9633 36.1689 24.9463 35.9536 24.935C35.7496 24.9237 35.5342 24.918 35.3076 24.918C35.0356 24.918 34.7579 24.9237 34.4746 24.935C34.2026 24.9577 33.8966 24.986 33.5566 25.02C33.2166 25.054 32.8369 25.0993 32.4176 25.156C31.9982 25.2127 31.5109 25.2863 30.9556 25.377C30.6949 25.2863 30.4342 25.105 30.1736 24.833C29.9129 24.5723 29.6692 24.255 29.4426 23.881C29.5559 23.6317 29.6976 23.3257 29.8676 22.963C30.0376 22.589 30.2359 22.1413 30.4626 21.62C30.6892 21.0873 30.9386 20.4697 31.2106 19.767C31.4939 19.053 31.7942 18.2313 32.1116 17.302C32.3156 16.69 32.4912 16.1517 32.6386 15.687C32.7859 15.2223 32.9162 14.7747 33.0296 14.344C33.1542 13.902 33.2732 13.443 33.3866 12.967C33.4999 12.491 33.6246 11.9413 33.7606 11.318C34.2139 11.4087 34.6049 11.5787 34.9336 11.828C35.2736 12.066 35.5966 12.4117 35.9026 12.865C35.8119 13.0123 35.6929 13.2503 35.5456 13.579C35.3982 13.9077 35.2226 14.31 35.0186 14.786C34.8259 15.2507 34.6106 15.7833 34.3726 16.384C34.1346 16.9733 33.8852 17.608 33.6246 18.288C33.3752 18.9567 33.1316 19.5857 32.8936 20.175C32.6556 20.7643 32.4402 21.297 32.2476 21.773C32.0662 22.249 31.9189 22.657 31.8056 22.997C31.6922 23.337 31.6356 23.592 31.6356 23.762C31.8169 23.7507 31.9812 23.7393 32.1286 23.728C32.2759 23.7167 32.4289 23.6997 32.5876 23.677C32.7462 23.643 32.9162 23.609 33.0976 23.575C33.2902 23.5297 33.5169 23.473 33.7776 23.405C34.0042 23.3483 34.2139 23.303 34.4066 23.269C34.5992 23.2237 34.7862 23.1897 34.9676 23.167C35.1602 23.133 35.3529 23.1103 35.5456 23.099C35.7496 23.0763 35.9762 23.0537 36.2256 23.031ZM43.6507 17.132C43.7641 17.132 43.8944 17.1547 44.0417 17.2C44.2004 17.234 44.3421 17.285 44.4667 17.353C44.5914 17.4097 44.6934 17.472 44.7727 17.54C44.8634 17.608 44.9087 17.6703 44.9087 17.727C44.6821 18.203 44.4724 18.6847 44.2797 19.172C44.0871 19.648 43.9227 20.107 43.7867 20.549C43.6507 20.991 43.5431 21.4047 43.4637 21.79C43.3957 22.1753 43.3617 22.5097 43.3617 22.793C43.3617 23.1103 43.3957 23.3767 43.4637 23.592C43.5317 23.796 43.6451 23.9433 43.8037 24.034C43.6677 24.1247 43.4921 24.1983 43.2767 24.255C43.0614 24.3117 42.8687 24.34 42.6987 24.34C42.0867 24.34 41.7807 23.9207 41.7807 23.082C41.7807 22.436 41.9961 21.552 42.4267 20.43C42.2001 20.9513 41.9394 21.4443 41.6447 21.909C41.3501 22.3623 41.0497 22.7647 40.7437 23.116C40.4377 23.4673 40.1261 23.7563 39.8087 23.983C39.5027 24.1983 39.2194 24.3287 38.9587 24.374C38.5394 24.3513 38.1994 24.153 37.9387 23.779C37.6781 23.3937 37.5477 22.9063 37.5477 22.317C37.5477 21.6823 37.6837 21.0137 37.9557 20.311C38.2277 19.6083 38.5734 18.9567 38.9927 18.356C39.4234 17.7553 39.8881 17.2567 40.3867 16.86C40.8854 16.452 41.3671 16.2367 41.8317 16.214C41.9451 16.248 42.0697 16.316 42.2057 16.418C42.3531 16.52 42.4891 16.639 42.6137 16.775C42.7497 16.911 42.8631 17.0527 42.9537 17.2C43.0444 17.336 43.0954 17.455 43.1067 17.557C42.6534 17.625 42.1831 17.846 41.6957 18.22C41.2197 18.594 40.7834 19.0473 40.3867 19.58C40.0014 20.1013 39.6841 20.6623 39.4347 21.263C39.1854 21.8637 39.0607 22.4247 39.0607 22.946C39.0607 23.1613 39.1401 23.2973 39.2987 23.354C39.6274 23.286 40.0071 23.0083 40.4377 22.521C40.8684 22.0223 41.3897 21.2573 42.0017 20.226C42.1151 20.022 42.2397 19.7953 42.3757 19.546C42.5231 19.2967 42.6704 19.036 42.8177 18.764C42.9651 18.492 43.1067 18.22 43.2427 17.948C43.3901 17.6647 43.5261 17.3927 43.6507 17.132ZM51.6361 17.234C51.6247 17.4493 51.5851 17.676 51.5171 17.914C51.4604 18.1407 51.3867 18.3503 51.2961 18.543C51.2054 18.7243 51.1091 18.8773 51.0071 19.002C50.9051 19.1267 50.8087 19.189 50.7181 19.189C50.5934 19.1777 50.5197 19.0927 50.4971 18.934C50.4971 18.9 50.5084 18.849 50.5311 18.781C50.5651 18.7017 50.5991 18.6167 50.6331 18.526C50.6671 18.4353 50.6954 18.3447 50.7181 18.254C50.7521 18.1633 50.7691 18.084 50.7691 18.016C50.7691 17.8573 50.7294 17.727 50.6501 17.625C50.5821 17.5117 50.4857 17.455 50.3611 17.455C49.9077 17.455 49.5621 17.7383 49.3241 18.305C49.0861 18.8717 48.9671 19.7047 48.9671 20.804C48.9671 20.9173 48.9727 20.9853 48.9841 21.008C49.2221 20.9967 49.4317 20.991 49.6131 20.991C49.8057 20.9797 49.9927 20.974 50.1741 20.974C50.1854 20.9967 50.1911 21.042 50.1911 21.11C50.1911 21.212 50.1684 21.2857 50.1231 21.331C49.8624 21.3877 49.6527 21.4387 49.4941 21.484C49.3467 21.518 49.2334 21.552 49.1541 21.586C49.0747 21.62 49.0237 21.6597 49.0011 21.705C48.9897 21.739 48.9841 21.79 48.9841 21.858C48.9841 21.9487 48.9841 22.0393 48.9841 22.13C48.9954 22.2207 49.0011 22.334 49.0011 22.47C49.0011 23.422 48.7404 24.187 48.2191 24.765C47.7091 25.343 46.9951 25.6773 46.0771 25.768C45.9184 25.7567 45.7541 25.7113 45.5841 25.632C45.4141 25.5527 45.2497 25.4507 45.0911 25.326C44.9437 25.2013 44.8134 25.0597 44.7001 24.901C44.5867 24.7537 44.5074 24.6007 44.4621 24.442C44.4621 24.0113 44.5527 23.6033 44.7341 23.218C44.9154 22.8213 45.1591 22.4757 45.4651 22.181C45.7824 21.875 46.1507 21.6313 46.5701 21.45C47.0007 21.2573 47.4654 21.144 47.9641 21.11C47.9641 20.8267 47.9357 20.549 47.8791 20.277C47.8224 20.005 47.7601 19.7443 47.6921 19.495C47.6354 19.2343 47.5787 18.985 47.5221 18.747C47.4654 18.4977 47.4371 18.254 47.4371 18.016C47.4371 17.71 47.4994 17.4097 47.6241 17.115C47.7487 16.809 47.9131 16.5313 48.1171 16.282C48.3211 16.0213 48.5591 15.8003 48.8311 15.619C49.1031 15.4377 49.3864 15.313 49.6811 15.245C49.8057 15.279 49.9701 15.381 50.1741 15.551C50.3894 15.7097 50.5991 15.891 50.8031 16.095C51.0071 16.299 51.1884 16.5087 51.3471 16.724C51.5057 16.928 51.6021 17.098 51.6361 17.234ZM46.0261 24.986C46.2981 24.8727 46.5531 24.7083 46.7911 24.493C47.0404 24.2777 47.2557 24.034 47.4371 23.762C47.6184 23.49 47.7601 23.201 47.8621 22.895C47.9754 22.589 48.0321 22.2887 48.0321 21.994C47.8054 22.028 47.5561 22.1357 47.2841 22.317C47.0121 22.487 46.7571 22.6967 46.5191 22.946C46.2811 23.184 46.0827 23.4333 45.9241 23.694C45.7654 23.9547 45.6861 24.1813 45.6861 24.374C45.6861 24.6233 45.7994 24.8273 46.0261 24.986ZM52.651 17.489C52.5944 17.421 52.5434 17.2793 52.498 17.064C52.4527 16.8373 52.43 16.6447 52.43 16.486C52.7247 16.5087 53.008 16.5313 53.28 16.554C53.552 16.5653 53.8014 16.5767 54.028 16.588C54.198 16.248 54.3794 15.9137 54.572 15.585C54.776 15.245 54.9687 14.939 55.15 14.667C55.3427 14.3837 55.5184 14.1457 55.677 13.953C55.847 13.7603 55.9774 13.6357 56.068 13.579C56.1814 13.579 56.323 13.6017 56.493 13.647C56.6744 13.681 56.8557 13.732 57.037 13.8C57.2184 13.8567 57.3827 13.919 57.53 13.987C57.6774 14.055 57.7794 14.123 57.836 14.191C57.496 14.6217 57.2014 15.024 56.952 15.398C56.714 15.7607 56.4534 16.18 56.17 16.656C56.3967 16.656 56.6234 16.6503 56.85 16.639C57.088 16.6277 57.326 16.6107 57.564 16.588C57.6207 16.6447 57.666 16.7183 57.7 16.809C57.734 16.8883 57.751 16.9733 57.751 17.064C57.1957 17.268 56.5214 17.3813 55.728 17.404C55.4447 17.948 55.1897 18.492 54.963 19.036C54.7477 19.5687 54.5607 20.0843 54.402 20.583C54.2547 21.0817 54.1357 21.552 54.045 21.994C53.9657 22.436 53.926 22.8327 53.926 23.184C53.926 23.6827 54.113 23.9603 54.487 24.017C54.827 23.9717 55.15 23.8867 55.456 23.762C55.762 23.6373 56.034 23.4787 56.272 23.286C56.34 23.388 56.3797 23.473 56.391 23.541C56.323 23.643 56.204 23.762 56.034 23.898C55.8754 24.034 55.6997 24.1643 55.507 24.289C55.3144 24.425 55.1274 24.5383 54.946 24.629C54.7647 24.7197 54.6287 24.7707 54.538 24.782C54.2547 24.7707 53.9714 24.7083 53.688 24.595C53.4047 24.4817 53.144 24.34 52.906 24.17C52.6794 24 52.4924 23.813 52.345 23.609C52.1977 23.3937 52.124 23.184 52.124 22.98C52.124 22.708 52.158 22.368 52.226 21.96C52.3054 21.5407 52.413 21.0873 52.549 20.6C52.685 20.1127 52.8437 19.6027 53.025 19.07C53.2064 18.5373 53.4047 18.0103 53.62 17.489H52.651ZM68.511 12.542C68.545 12.7347 68.5676 12.8707 68.579 12.95C68.6016 13.018 68.613 13.1143 68.613 13.239C68.613 13.613 68.528 13.9643 68.358 14.293C68.1993 14.6103 67.9783 14.837 67.695 14.973C67.4683 14.667 67.1906 14.4063 66.862 14.191C66.5333 13.9643 66.1706 13.783 65.774 13.647C65.3886 13.4997 64.9863 13.392 64.567 13.324C64.1476 13.256 63.7396 13.222 63.343 13.222C62.9463 13.222 62.5723 13.256 62.221 13.324C61.881 13.3807 61.575 13.4657 61.303 13.579C61.0423 13.681 60.8326 13.8113 60.674 13.97C60.5266 14.1287 60.453 14.31 60.453 14.514C60.487 14.7633 60.64 15.0183 60.912 15.279C61.184 15.5283 61.5183 15.7777 61.915 16.027C62.3116 16.265 62.748 16.503 63.224 16.741C63.7113 16.979 64.1873 17.2057 64.652 17.421C65.23 17.693 65.7286 17.948 66.148 18.186C66.5673 18.4127 66.913 18.6677 67.185 18.951C67.457 19.223 67.661 19.5347 67.797 19.886C67.933 20.2373 68.001 20.6623 68.001 21.161C68.001 21.739 67.9046 22.283 67.712 22.793C67.5193 23.2917 67.236 23.728 66.862 24.102C66.4993 24.476 66.0573 24.765 65.536 24.969C65.0146 25.1843 64.431 25.292 63.785 25.292C63.1503 25.292 62.4646 25.1957 61.728 25.003C60.9913 24.8103 60.3 24.544 59.654 24.204C59.0193 23.8753 58.4866 23.4957 58.056 23.065C57.6366 22.623 57.427 22.1583 57.427 21.671C57.427 21.4443 57.4893 21.1553 57.614 20.804C57.75 20.4527 57.988 20.0843 58.328 19.699C58.362 20.039 58.5433 20.4413 58.872 20.906C59.212 21.3707 59.7163 21.8013 60.385 22.198C61.0083 22.5607 61.6486 22.827 62.306 22.997C62.9746 23.1557 63.598 23.235 64.176 23.235C64.8106 23.235 65.3263 23.1557 65.723 22.997C66.1196 22.8383 66.4313 22.6513 66.658 22.436C66.8846 22.2093 67.0433 21.9827 67.134 21.756C67.2246 21.5293 67.2756 21.348 67.287 21.212C67.2756 20.9853 67.168 20.77 66.964 20.566C66.7713 20.3507 66.505 20.1467 66.165 19.954C65.8363 19.75 65.451 19.546 65.009 19.342C64.567 19.138 64.108 18.934 63.632 18.73C62.918 18.4127 62.3003 18.118 61.779 17.846C61.269 17.5627 60.844 17.2793 60.504 16.996C60.1753 16.7013 59.9316 16.3953 59.773 16.078C59.6256 15.7607 59.552 15.398 59.552 14.99C59.552 14.3553 59.7446 13.7547 60.13 13.188C60.5153 12.6213 61.0706 12.1907 61.796 11.896C62.1586 11.7373 62.544 11.624 62.952 11.556C63.3713 11.488 63.7793 11.454 64.176 11.454C64.924 11.454 65.655 11.556 66.369 11.76C67.083 11.964 67.797 12.2247 68.511 12.542ZM69.8668 17.489C69.8102 17.421 69.7592 17.2793 69.7138 17.064C69.6685 16.8373 69.6458 16.6447 69.6458 16.486C69.9405 16.5087 70.2238 16.5313 70.4958 16.554C70.7678 16.5653 71.0172 16.5767 71.2438 16.588C71.4138 16.248 71.5952 15.9137 71.7878 15.585C71.9918 15.245 72.1845 14.939 72.3658 14.667C72.5585 14.3837 72.7342 14.1457 72.8928 13.953C73.0628 13.7603 73.1932 13.6357 73.2838 13.579C73.3972 13.579 73.5388 13.6017 73.7088 13.647C73.8902 13.681 74.0715 13.732 74.2528 13.8C74.4342 13.8567 74.5985 13.919 74.7458 13.987C74.8932 14.055 74.9952 14.123 75.0518 14.191C74.7118 14.6217 74.4172 15.024 74.1678 15.398C73.9298 15.7607 73.6692 16.18 73.3858 16.656C73.6125 16.656 73.8392 16.6503 74.0658 16.639C74.3038 16.6277 74.5418 16.6107 74.7798 16.588C74.8365 16.6447 74.8818 16.7183 74.9158 16.809C74.9498 16.8883 74.9668 16.9733 74.9668 17.064C74.4115 17.268 73.7372 17.3813 72.9438 17.404C72.6605 17.948 72.4055 18.492 72.1788 19.036C71.9635 19.5687 71.7765 20.0843 71.6178 20.583C71.4705 21.0817 71.3515 21.552 71.2608 21.994C71.1815 22.436 71.1418 22.8327 71.1418 23.184C71.1418 23.6827 71.3288 23.9603 71.7028 24.017C72.0428 23.9717 72.3658 23.8867 72.6718 23.762C72.9778 23.6373 73.2498 23.4787 73.4878 23.286C73.5558 23.388 73.5955 23.473 73.6068 23.541C73.5388 23.643 73.4198 23.762 73.2498 23.898C73.0912 24.034 72.9155 24.1643 72.7228 24.289C72.5302 24.425 72.3432 24.5383 72.1618 24.629C71.9805 24.7197 71.8445 24.7707 71.7538 24.782C71.4705 24.7707 71.1872 24.7083 70.9038 24.595C70.6205 24.4817 70.3598 24.34 70.1218 24.17C69.8952 24 69.7082 23.813 69.5608 23.609C69.4135 23.3937 69.3398 23.184 69.3398 22.98C69.3398 22.708 69.3738 22.368 69.4418 21.96C69.5212 21.5407 69.6288 21.0873 69.7648 20.6C69.9008 20.1127 70.0595 19.6027 70.2408 19.07C70.4222 18.5373 70.6205 18.0103 70.8358 17.489H69.8668ZM76.8464 24.595C76.2004 24.527 75.6847 24.2437 75.2994 23.745C74.9141 23.2463 74.7214 22.6117 74.7214 21.841C74.7214 21.3877 74.7894 20.9173 74.9254 20.43C75.0614 19.9427 75.2541 19.4723 75.5034 19.019C75.7527 18.5543 76.0474 18.118 76.3874 17.71C76.7274 17.302 77.0957 16.9507 77.4924 16.656C78.1157 16.1913 78.6994 15.959 79.2434 15.959C79.6061 16.1517 79.9631 16.554 80.3144 17.166C80.3711 17.166 80.4221 17.166 80.4674 17.166C80.5127 17.1547 80.5637 17.149 80.6204 17.149C81.2211 17.149 81.5214 17.6817 81.5214 18.747C81.5214 19.461 81.4024 20.141 81.1644 20.787C80.9377 21.4217 80.6147 21.9997 80.1954 22.521C79.7874 23.0423 79.2944 23.4843 78.7164 23.847C78.1497 24.1983 77.5264 24.4477 76.8464 24.595ZM77.7134 19.24C77.5207 19.5007 77.3394 19.784 77.1694 20.09C76.9994 20.396 76.8521 20.7077 76.7274 21.025C76.6027 21.331 76.5064 21.6313 76.4384 21.926C76.3704 22.2093 76.3364 22.4643 76.3364 22.691C76.3364 22.963 76.3817 23.2237 76.4724 23.473C76.5631 23.7223 76.6651 23.864 76.7784 23.898C77.2884 23.7847 77.7531 23.575 78.1724 23.269C78.6031 22.9517 78.9714 22.5607 79.2774 22.096C79.5947 21.6313 79.8384 21.1043 80.0084 20.515C80.1897 19.9257 80.2804 19.2967 80.2804 18.628C80.2804 18.3333 80.2634 18.101 80.2294 17.931C80.1954 17.761 80.1387 17.6137 80.0594 17.489C79.5607 17.6363 79.1131 17.8743 78.7164 18.203C78.3311 18.5317 77.9967 18.8773 77.7134 19.24ZM81.1033 29.627C80.9446 29.5817 80.854 29.4117 80.8313 29.117C80.786 28.9697 80.752 28.794 80.7293 28.59C80.718 28.386 80.7123 28.1537 80.7123 27.893C80.7123 27.655 80.752 27.3263 80.8313 26.907C80.9106 26.499 81.0183 26.0343 81.1543 25.513C81.3016 24.9917 81.4773 24.4307 81.6813 23.83C81.8853 23.218 82.112 22.6003 82.3613 21.977C82.6673 21.195 82.9336 20.5207 83.1603 19.954C83.387 19.376 83.574 18.8773 83.7213 18.458C83.88 18.0387 84.0046 17.693 84.0953 17.421C84.1973 17.149 84.2766 16.9167 84.3333 16.724C84.3786 16.588 84.4466 16.4237 84.5373 16.231C84.628 16.0383 84.73 15.8457 84.8433 15.653C84.968 15.449 85.0926 15.262 85.2173 15.092C85.342 14.9107 85.4553 14.7747 85.5573 14.684C85.954 14.7407 86.328 14.8427 86.6793 14.99C87.0306 15.1373 87.246 15.279 87.3253 15.415C87.1666 15.5623 86.9853 15.7947 86.7813 16.112C86.5773 16.418 86.379 16.758 86.1863 17.132C85.9936 17.4947 85.818 17.8687 85.6593 18.254C85.5006 18.6393 85.3816 18.9793 85.3023 19.274C85.4156 19.0813 85.563 18.8717 85.7443 18.645C85.9256 18.4183 86.2033 18.1067 86.5773 17.71C86.9966 17.2793 87.3876 16.9507 87.7503 16.724C88.1243 16.486 88.4473 16.367 88.7193 16.367C89.15 16.367 89.5013 16.486 89.7733 16.724C90.0566 16.962 90.1983 17.268 90.1983 17.642C90.1983 18.458 90.0623 19.2683 89.7903 20.073C89.5183 20.8663 89.1273 21.586 88.6173 22.232C88.4246 22.4813 88.198 22.7193 87.9373 22.946C87.6766 23.1727 87.4046 23.3767 87.1213 23.558C86.838 23.728 86.5603 23.864 86.2883 23.966C86.0163 24.068 85.7726 24.119 85.5573 24.119C85.3533 24.119 85.172 24.0793 85.0133 24C84.866 23.9093 84.764 23.8017 84.7073 23.677C85.1493 23.4163 85.58 23.0537 85.9993 22.589C86.4186 22.1243 86.804 21.5917 87.1553 20.991C87.518 20.379 87.8296 19.7217 88.0903 19.019C88.3623 18.3163 88.5663 17.6023 88.7023 16.877C88.2716 17.1037 87.8806 17.353 87.5293 17.625C87.1893 17.8857 86.8493 18.2313 86.5093 18.662C86.1013 19.1607 85.7783 19.563 85.5403 19.869C85.3023 20.175 85.104 20.4357 84.9453 20.651C84.798 20.8663 84.6733 21.0703 84.5713 21.263C84.4806 21.4443 84.3786 21.671 84.2653 21.943C84.1066 22.3057 83.9196 22.7873 83.7043 23.388C83.5003 23.9773 83.285 24.6403 83.0583 25.377C82.843 26.1137 82.622 26.8957 82.3953 27.723C82.18 28.5617 81.9703 29.3947 81.7663 30.222C81.6416 30.1993 81.534 30.1087 81.4433 29.95C81.3526 29.848 81.2846 29.7743 81.2393 29.729C81.2053 29.6837 81.16 29.6497 81.1033 29.627ZM102.077 14.633C102.077 15.3357 101.885 15.9647 101.499 16.52C101.114 17.064 100.587 17.5173 99.9185 17.88C100.349 18.1747 100.689 18.5373 100.938 18.968C101.199 19.3873 101.329 19.852 101.329 20.362C101.329 20.974 101.142 21.5803 100.768 22.181C100.406 22.7703 99.9185 23.2973 99.3065 23.762C98.6945 24.2153 97.9975 24.5837 97.2155 24.867C96.4335 25.1503 95.6345 25.292 94.8185 25.292C93.9345 25.292 93.1581 25.122 92.4895 24.782C91.8321 24.4533 91.3165 23.983 90.9425 23.371C91.0558 23.031 91.2031 22.6117 91.3845 22.113C91.5771 21.603 91.7868 21.0703 92.0135 20.515C92.2401 19.9483 92.4668 19.3873 92.6935 18.832C92.9315 18.2767 93.1525 17.778 93.3565 17.336C93.7871 16.3727 94.1725 15.5737 94.5125 14.939C94.8525 14.3043 95.1641 13.8 95.4475 13.426C94.8241 13.6187 94.2575 13.8397 93.7475 14.089C93.2375 14.327 92.8635 14.5593 92.6255 14.786C92.5235 14.718 92.4158 14.616 92.3025 14.48C92.2005 14.344 92.0985 14.1967 91.9965 14.038C91.9058 13.868 91.8265 13.698 91.7585 13.528C91.7018 13.358 91.6678 13.205 91.6565 13.069C91.9511 12.865 92.3308 12.6723 92.7955 12.491C93.2715 12.2983 93.7871 12.134 94.3425 11.998C94.8978 11.862 95.4645 11.7543 96.0425 11.675C96.6318 11.5957 97.1928 11.556 97.7255 11.556C99.0855 11.556 100.151 11.828 100.921 12.372C101.692 12.916 102.077 13.6697 102.077 14.633ZM95.6005 18.696C95.3851 18.594 95.1868 18.441 95.0055 18.237C94.7448 18.815 94.4955 19.3817 94.2575 19.937C94.0308 20.4923 93.8268 21.008 93.6455 21.484C93.4641 21.96 93.3168 22.3737 93.2035 22.725C93.0901 23.0763 93.0278 23.3313 93.0165 23.49C93.1751 23.5807 93.3621 23.6487 93.5775 23.694C93.8041 23.7393 94.0818 23.762 94.4105 23.762C95.1811 23.762 95.9178 23.6543 96.6205 23.439C97.3231 23.2237 97.9408 22.9347 98.4735 22.572C99.0061 22.198 99.4311 21.773 99.7485 21.297C100.066 20.821 100.224 20.3223 100.224 19.801C100.224 19.053 99.9015 18.5147 99.2555 18.186C98.3715 18.5487 97.3741 18.73 96.2635 18.73C96.1048 18.73 95.9801 18.73 95.8895 18.73C95.8101 18.73 95.7138 18.7187 95.6005 18.696ZM98.8985 12.797C98.6605 12.797 98.4055 12.814 98.1335 12.848C97.8728 12.8707 97.5951 12.9103 97.3005 12.967C97.3458 13.0123 97.3798 13.0633 97.4025 13.12C97.4365 13.1653 97.4648 13.2163 97.4875 13.273C97.3855 13.409 97.2608 13.6073 97.1135 13.868C96.9661 14.1287 96.8018 14.4347 96.6205 14.786C96.4391 15.126 96.2465 15.5057 96.0425 15.925C95.8498 16.3443 95.6515 16.775 95.4475 17.217C95.6401 17.1717 95.8725 17.1377 96.1445 17.115C96.4278 17.081 96.7055 17.064 96.9775 17.064C97.1248 17.064 97.2665 17.0697 97.4025 17.081C97.5498 17.0923 97.6915 17.1093 97.8275 17.132C98.3715 17.0413 98.8588 16.911 99.2895 16.741C99.7315 16.5597 100.111 16.3557 100.428 16.129C100.746 15.891 100.989 15.6303 101.159 15.347C101.329 15.0637 101.414 14.7633 101.414 14.446C101.414 13.902 101.199 13.494 100.768 13.222C100.338 12.9387 99.7145 12.797 98.8985 12.797ZM108.38 17.132C108.494 17.132 108.624 17.1547 108.771 17.2C108.93 17.234 109.072 17.285 109.196 17.353C109.321 17.4097 109.423 17.472 109.502 17.54C109.593 17.608 109.638 17.6703 109.638 17.727C109.412 18.203 109.202 18.6847 109.009 19.172C108.817 19.648 108.652 20.107 108.516 20.549C108.38 20.991 108.273 21.4047 108.193 21.79C108.125 22.1753 108.091 22.5097 108.091 22.793C108.091 23.1103 108.125 23.3767 108.193 23.592C108.261 23.796 108.375 23.9433 108.533 24.034C108.397 24.1247 108.222 24.1983 108.006 24.255C107.791 24.3117 107.598 24.34 107.428 24.34C106.816 24.34 106.51 23.9207 106.51 23.082C106.51 22.436 106.726 21.552 107.156 20.43C106.93 20.9513 106.669 21.4443 106.374 21.909C106.08 22.3623 105.779 22.7647 105.473 23.116C105.167 23.4673 104.856 23.7563 104.538 23.983C104.232 24.1983 103.949 24.3287 103.688 24.374C103.269 24.3513 102.929 24.153 102.668 23.779C102.408 23.3937 102.277 22.9063 102.277 22.317C102.277 21.6823 102.413 21.0137 102.685 20.311C102.957 19.6083 103.303 18.9567 103.722 18.356C104.153 17.7553 104.618 17.2567 105.116 16.86C105.615 16.452 106.097 16.2367 106.561 16.214C106.675 16.248 106.799 16.316 106.935 16.418C107.083 16.52 107.219 16.639 107.343 16.775C107.479 16.911 107.593 17.0527 107.683 17.2C107.774 17.336 107.825 17.455 107.836 17.557C107.383 17.625 106.913 17.846 106.425 18.22C105.949 18.594 105.513 19.0473 105.116 19.58C104.731 20.1013 104.414 20.6623 104.164 21.263C103.915 21.8637 103.79 22.4247 103.79 22.946C103.79 23.1613 103.87 23.2973 104.028 23.354C104.357 23.286 104.737 23.0083 105.167 22.521C105.598 22.0223 106.119 21.2573 106.731 20.226C106.845 20.022 106.969 19.7953 107.105 19.546C107.253 19.2967 107.4 19.036 107.547 18.764C107.695 18.492 107.836 18.22 107.972 17.948C108.12 17.6647 108.256 17.3927 108.38 17.132ZM110.47 21.008C110.47 20.362 110.6 19.7387 110.861 19.138C111.133 18.526 111.484 17.9877 111.915 17.523C112.357 17.047 112.855 16.6673 113.411 16.384C113.977 16.0893 114.561 15.942 115.162 15.942C115.751 15.942 116.204 16.0893 116.522 16.384C116.839 16.6787 116.998 17.098 116.998 17.642C116.998 17.9027 116.958 18.1577 116.879 18.407C116.811 18.645 116.714 18.8603 116.59 19.053C116.476 19.2457 116.34 19.4043 116.182 19.529C116.023 19.6423 115.864 19.699 115.706 19.699C115.57 19.699 115.428 19.6593 115.281 19.58C115.145 19.4893 115.031 19.376 114.941 19.24C115.7 18.5487 116.08 17.9197 116.08 17.353C116.08 17.0243 115.949 16.86 115.689 16.86C115.462 16.86 115.179 16.9677 114.839 17.183C114.499 17.3983 114.17 17.6817 113.853 18.033C113.365 18.577 112.991 19.1833 112.731 19.852C112.481 20.5093 112.357 21.2007 112.357 21.926C112.357 22.844 112.561 23.3937 112.969 23.575C113.139 23.5523 113.337 23.5013 113.564 23.422C113.79 23.3427 114.034 23.2407 114.295 23.116C114.555 22.98 114.822 22.827 115.094 22.657C115.377 22.487 115.649 22.3057 115.91 22.113C115.955 22.147 115.995 22.198 116.029 22.266C116.063 22.334 116.08 22.3963 116.08 22.453C115.887 22.691 115.666 22.9233 115.417 23.15C115.167 23.3767 114.907 23.5863 114.635 23.779C114.363 23.9603 114.096 24.1133 113.836 24.238C113.586 24.374 113.365 24.459 113.173 24.493C112.799 24.459 112.447 24.34 112.119 24.136C111.79 23.9433 111.501 23.6883 111.252 23.371C111.014 23.0537 110.821 22.691 110.674 22.283C110.538 21.875 110.47 21.45 110.47 21.008ZM117.54 22.402C117.54 21.994 117.642 21.4273 117.846 20.702C118.062 19.9767 118.339 19.1833 118.679 18.322C119.019 17.4607 119.405 16.571 119.835 15.653C120.266 14.735 120.697 13.8793 121.127 13.086C121.569 12.2927 121.989 11.607 122.385 11.029C122.793 10.451 123.139 10.06 123.422 9.856C123.581 9.86733 123.751 9.93533 123.932 10.06C124.125 10.1847 124.301 10.3377 124.459 10.519C124.618 10.689 124.748 10.8703 124.85 11.063C124.964 11.2557 125.02 11.4313 125.02 11.59C124.51 11.998 123.989 12.525 123.456 13.171C122.935 13.8057 122.436 14.5083 121.96 15.279C121.484 16.0383 121.042 16.8487 120.634 17.71C120.238 18.56 119.903 19.3987 119.631 20.226C119.994 19.6027 120.374 19.036 120.77 18.526C121.167 18.016 121.564 17.5797 121.96 17.217C122.357 16.8543 122.742 16.5767 123.116 16.384C123.502 16.18 123.864 16.0723 124.204 16.061C124.703 16.4237 124.952 16.9053 124.952 17.506C124.952 17.8687 124.879 18.237 124.731 18.611C124.584 18.9737 124.386 19.3137 124.136 19.631C123.898 19.937 123.621 20.2033 123.303 20.43C122.997 20.6453 122.674 20.787 122.334 20.855C122.448 21.2517 122.589 21.654 122.759 22.062C122.941 22.47 123.15 22.8667 123.388 23.252C123.638 23.6373 123.915 23.9943 124.221 24.323C124.539 24.6517 124.896 24.9293 125.292 25.156C125.236 25.2693 125.151 25.3827 125.037 25.496C124.924 25.6093 124.788 25.7057 124.629 25.785C124.471 25.8757 124.295 25.9437 124.102 25.989C123.921 26.0457 123.74 26.074 123.558 26.074C123.252 26.074 122.963 25.921 122.691 25.615C122.431 25.309 122.193 24.867 121.977 24.289C121.807 23.8243 121.643 23.269 121.484 22.623C121.326 21.977 121.184 21.3027 121.059 20.6C121.218 20.498 121.416 20.3507 121.654 20.158C121.892 19.954 122.142 19.7217 122.402 19.461C123.4 18.4977 123.898 17.6647 123.898 16.962C123.898 16.8713 123.836 16.826 123.711 16.826C123.485 16.8373 123.218 16.945 122.912 17.149C122.606 17.353 122.278 17.6363 121.926 17.999C121.586 18.3617 121.235 18.7867 120.872 19.274C120.521 19.7613 120.181 20.2883 119.852 20.855C119.716 21.0817 119.592 21.3423 119.478 21.637C119.365 21.9317 119.263 22.2377 119.172 22.555C119.093 22.861 119.031 23.167 118.985 23.473C118.94 23.779 118.917 24.0623 118.917 24.323C118.917 24.4817 118.934 24.612 118.968 24.714C118.617 24.68 118.402 24.5893 118.322 24.442C118.232 24.306 118.152 24.1927 118.084 24.102C118.028 24.0227 117.965 23.9547 117.897 23.898C117.795 23.8187 117.71 23.6487 117.642 23.388C117.574 23.1273 117.54 22.7987 117.54 22.402ZM125.529 29.627C125.37 29.5817 125.28 29.4117 125.257 29.117C125.212 28.9697 125.178 28.794 125.155 28.59C125.144 28.386 125.138 28.1537 125.138 27.893C125.138 27.655 125.178 27.3263 125.257 26.907C125.336 26.499 125.444 26.0343 125.58 25.513C125.727 24.9917 125.903 24.4307 126.107 23.83C126.311 23.218 126.538 22.6003 126.787 21.977C127.093 21.195 127.359 20.5207 127.586 19.954C127.813 19.376 128 18.8773 128.147 18.458C128.306 18.0387 128.43 17.693 128.521 17.421C128.623 17.149 128.702 16.9167 128.759 16.724C128.804 16.588 128.872 16.4237 128.963 16.231C129.054 16.0383 129.156 15.8457 129.269 15.653C129.394 15.449 129.518 15.262 129.643 15.092C129.768 14.9107 129.881 14.7747 129.983 14.684C130.38 14.7407 130.754 14.8427 131.105 14.99C131.456 15.1373 131.672 15.279 131.751 15.415C131.592 15.5623 131.411 15.7947 131.207 16.112C131.003 16.418 130.805 16.758 130.612 17.132C130.419 17.4947 130.244 17.8687 130.085 18.254C129.926 18.6393 129.807 18.9793 129.728 19.274C129.841 19.0813 129.989 18.8717 130.17 18.645C130.351 18.4183 130.629 18.1067 131.003 17.71C131.422 17.2793 131.813 16.9507 132.176 16.724C132.55 16.486 132.873 16.367 133.145 16.367C133.576 16.367 133.927 16.486 134.199 16.724C134.482 16.962 134.624 17.268 134.624 17.642C134.624 18.458 134.488 19.2683 134.216 20.073C133.944 20.8663 133.553 21.586 133.043 22.232C132.85 22.4813 132.624 22.7193 132.363 22.946C132.102 23.1727 131.83 23.3767 131.547 23.558C131.264 23.728 130.986 23.864 130.714 23.966C130.442 24.068 130.198 24.119 129.983 24.119C129.779 24.119 129.598 24.0793 129.439 24C129.292 23.9093 129.19 23.8017 129.133 23.677C129.575 23.4163 130.006 23.0537 130.425 22.589C130.844 22.1243 131.23 21.5917 131.581 20.991C131.944 20.379 132.255 19.7217 132.516 19.019C132.788 18.3163 132.992 17.6023 133.128 16.877C132.697 17.1037 132.306 17.353 131.955 17.625C131.615 17.8857 131.275 18.2313 130.935 18.662C130.527 19.1607 130.204 19.563 129.966 19.869C129.728 20.175 129.53 20.4357 129.371 20.651C129.224 20.8663 129.099 21.0703 128.997 21.263C128.906 21.4443 128.804 21.671 128.691 21.943C128.532 22.3057 128.345 22.7873 128.13 23.388C127.926 23.9773 127.711 24.6403 127.484 25.377C127.269 26.1137 127.048 26.8957 126.821 27.723C126.606 28.5617 126.396 29.3947 126.192 30.222C126.067 30.1993 125.96 30.1087 125.869 29.95C125.778 29.848 125.71 29.7743 125.665 29.729C125.631 29.6837 125.586 29.6497 125.529 29.627ZM141.102 17.132C141.215 17.132 141.346 17.1547 141.493 17.2C141.652 17.234 141.793 17.285 141.918 17.353C142.043 17.4097 142.145 17.472 142.224 17.54C142.315 17.608 142.36 17.6703 142.36 17.727C142.133 18.203 141.924 18.6847 141.731 19.172C141.538 19.648 141.374 20.107 141.238 20.549C141.102 20.991 140.994 21.4047 140.915 21.79C140.847 22.1753 140.813 22.5097 140.813 22.793C140.813 23.1103 140.847 23.3767 140.915 23.592C140.983 23.796 141.096 23.9433 141.255 24.034C141.119 24.1247 140.943 24.1983 140.728 24.255C140.513 24.3117 140.32 24.34 140.15 24.34C139.538 24.34 139.232 23.9207 139.232 23.082C139.232 22.436 139.447 21.552 139.878 20.43C139.651 20.9513 139.391 21.4443 139.096 21.909C138.801 22.3623 138.501 22.7647 138.195 23.116C137.889 23.4673 137.577 23.7563 137.26 23.983C136.954 24.1983 136.671 24.3287 136.41 24.374C135.991 24.3513 135.651 24.153 135.39 23.779C135.129 23.3937 134.999 22.9063 134.999 22.317C134.999 21.6823 135.135 21.0137 135.407 20.311C135.679 19.6083 136.025 18.9567 136.444 18.356C136.875 17.7553 137.339 17.2567 137.838 16.86C138.337 16.452 138.818 16.2367 139.283 16.214C139.396 16.248 139.521 16.316 139.657 16.418C139.804 16.52 139.94 16.639 140.065 16.775C140.201 16.911 140.314 17.0527 140.405 17.2C140.496 17.336 140.547 17.455 140.558 17.557C140.105 17.625 139.634 17.846 139.147 18.22C138.671 18.594 138.235 19.0473 137.838 19.58C137.453 20.1013 137.135 20.6623 136.886 21.263C136.637 21.8637 136.512 22.4247 136.512 22.946C136.512 23.1613 136.591 23.2973 136.75 23.354C137.079 23.286 137.458 23.0083 137.889 22.521C138.32 22.0223 138.841 21.2573 139.453 20.226C139.566 20.022 139.691 19.7953 139.827 19.546C139.974 19.2967 140.122 19.036 140.269 18.764C140.416 18.492 140.558 18.22 140.694 17.948C140.841 17.6647 140.977 17.3927 141.102 17.132ZM143.191 21.008C143.191 20.362 143.322 19.7387 143.582 19.138C143.854 18.526 144.206 17.9877 144.636 17.523C145.078 17.047 145.577 16.6673 146.132 16.384C146.699 16.0893 147.283 15.942 147.883 15.942C148.473 15.942 148.926 16.0893 149.243 16.384C149.561 16.6787 149.719 17.098 149.719 17.642C149.719 17.9027 149.68 18.1577 149.6 18.407C149.532 18.645 149.436 18.8603 149.311 19.053C149.198 19.2457 149.062 19.4043 148.903 19.529C148.745 19.6423 148.586 19.699 148.427 19.699C148.291 19.699 148.15 19.6593 148.002 19.58C147.866 19.4893 147.753 19.376 147.662 19.24C148.422 18.5487 148.801 17.9197 148.801 17.353C148.801 17.0243 148.671 16.86 148.41 16.86C148.184 16.86 147.9 16.9677 147.56 17.183C147.22 17.3983 146.892 17.6817 146.574 18.033C146.087 18.577 145.713 19.1833 145.452 19.852C145.203 20.5093 145.078 21.2007 145.078 21.926C145.078 22.844 145.282 23.3937 145.69 23.575C145.86 23.5523 146.059 23.5013 146.285 23.422C146.512 23.3427 146.756 23.2407 147.016 23.116C147.277 22.98 147.543 22.827 147.815 22.657C148.099 22.487 148.371 22.3057 148.631 22.113C148.677 22.147 148.716 22.198 148.75 22.266C148.784 22.334 148.801 22.3963 148.801 22.453C148.609 22.691 148.388 22.9233 148.138 23.15C147.889 23.3767 147.628 23.5863 147.356 23.779C147.084 23.9603 146.818 24.1133 146.557 24.238C146.308 24.374 146.087 24.459 145.894 24.493C145.52 24.459 145.169 24.34 144.84 24.136C144.512 23.9433 144.223 23.6883 143.973 23.371C143.735 23.0537 143.543 22.691 143.395 22.283C143.259 21.875 143.191 21.45 143.191 21.008ZM150.262 22.402C150.262 21.994 150.364 21.4273 150.568 20.702C150.783 19.9767 151.061 19.1833 151.401 18.322C151.741 17.4607 152.126 16.571 152.557 15.653C152.988 14.735 153.418 13.8793 153.849 13.086C154.291 12.2927 154.71 11.607 155.107 11.029C155.515 10.451 155.861 10.06 156.144 9.856C156.303 9.86733 156.473 9.93533 156.654 10.06C156.847 10.1847 157.022 10.3377 157.181 10.519C157.34 10.689 157.47 10.8703 157.572 11.063C157.685 11.2557 157.742 11.4313 157.742 11.59C157.232 11.998 156.711 12.525 156.178 13.171C155.657 13.8057 155.158 14.5083 154.682 15.279C154.206 16.0383 153.764 16.8487 153.356 17.71C152.959 18.56 152.625 19.3987 152.353 20.226C152.716 19.6027 153.095 19.036 153.492 18.526C153.889 18.016 154.285 17.5797 154.682 17.217C155.079 16.8543 155.464 16.5767 155.838 16.384C156.223 16.18 156.586 16.0723 156.926 16.061C157.425 16.4237 157.674 16.9053 157.674 17.506C157.674 17.8687 157.6 18.237 157.453 18.611C157.306 18.9737 157.107 19.3137 156.858 19.631C156.62 19.937 156.342 20.2033 156.025 20.43C155.719 20.6453 155.396 20.787 155.056 20.855C155.169 21.2517 155.311 21.654 155.481 22.062C155.662 22.47 155.872 22.8667 156.11 23.252C156.359 23.6373 156.637 23.9943 156.943 24.323C157.26 24.6517 157.617 24.9293 158.014 25.156C157.957 25.2693 157.872 25.3827 157.759 25.496C157.646 25.6093 157.51 25.7057 157.351 25.785C157.192 25.8757 157.017 25.9437 156.824 25.989C156.643 26.0457 156.461 26.074 156.28 26.074C155.974 26.074 155.685 25.921 155.413 25.615C155.152 25.309 154.914 24.867 154.699 24.289C154.529 23.8243 154.365 23.269 154.206 22.623C154.047 21.977 153.906 21.3027 153.781 20.6C153.94 20.498 154.138 20.3507 154.376 20.158C154.614 19.954 154.863 19.7217 155.124 19.461C156.121 18.4977 156.62 17.6647 156.62 16.962C156.62 16.8713 156.558 16.826 156.433 16.826C156.206 16.8373 155.94 16.945 155.634 17.149C155.328 17.353 154.999 17.6363 154.648 17.999C154.308 18.3617 153.957 18.7867 153.594 19.274C153.243 19.7613 152.903 20.2883 152.574 20.855C152.438 21.0817 152.313 21.3423 152.2 21.637C152.087 21.9317 151.985 22.2377 151.894 22.555C151.815 22.861 151.752 23.167 151.707 23.473C151.662 23.779 151.639 24.0623 151.639 24.323C151.639 24.4817 151.656 24.612 151.69 24.714C151.339 24.68 151.123 24.5893 151.044 24.442C150.953 24.306 150.874 24.1927 150.806 24.102C150.749 24.0227 150.687 23.9547 150.619 23.898C150.517 23.8187 150.432 23.6487 150.364 23.388C150.296 23.1273 150.262 22.7987 150.262 22.402ZM164.665 16.962C164.619 17.6647 164.495 18.271 164.291 18.781C164.087 19.2797 163.792 19.7217 163.407 20.107C163.033 20.481 162.574 20.821 162.03 21.127C161.486 21.433 160.851 21.7277 160.126 22.011C160.126 22.079 160.12 22.1527 160.109 22.232C160.109 22.3 160.109 22.3737 160.109 22.453C160.109 22.6003 160.12 22.7533 160.143 22.912C160.165 23.0707 160.205 23.218 160.262 23.354C160.318 23.49 160.398 23.6033 160.5 23.694C160.602 23.7733 160.732 23.813 160.891 23.813C161.197 23.813 161.497 23.745 161.792 23.609C162.086 23.473 162.364 23.3087 162.625 23.116C162.897 22.912 163.146 22.6967 163.373 22.47C163.611 22.232 163.82 22.0167 164.002 21.824C164.115 21.926 164.211 22.0223 164.291 22.113C163.781 22.793 163.22 23.3597 162.608 23.813C162.007 24.255 161.435 24.5383 160.891 24.663C160.109 24.5723 159.497 24.289 159.055 23.813C158.624 23.3257 158.409 22.742 158.409 22.062C158.409 21.5973 158.471 21.127 158.596 20.651C158.732 20.1637 158.913 19.699 159.14 19.257C159.378 18.8037 159.65 18.3787 159.956 17.982C160.273 17.5853 160.607 17.2397 160.959 16.945C161.321 16.6503 161.69 16.418 162.064 16.248C162.449 16.078 162.829 15.993 163.203 15.993C163.724 16.061 164.211 16.384 164.665 16.962ZM163.492 17.523C163.186 17.5683 162.868 17.693 162.54 17.897C162.211 18.101 161.899 18.373 161.605 18.713C161.321 19.053 161.061 19.4497 160.823 19.903C160.585 20.3563 160.398 20.8437 160.262 21.365C161.168 20.9117 161.922 20.3563 162.523 19.699C163.123 19.0303 163.446 18.305 163.492 17.523ZM165.044 23.66C165.1 23.3313 165.197 22.9007 165.333 22.368C165.48 21.824 165.65 21.2517 165.843 20.651C166.035 20.039 166.239 19.427 166.455 18.815C166.67 18.203 166.88 17.6533 167.084 17.166C167.231 16.8147 167.361 16.5427 167.475 16.35C167.588 16.146 167.713 15.976 167.849 15.84C168.007 15.8627 168.172 15.9023 168.342 15.959C168.512 16.0157 168.676 16.0837 168.835 16.163C168.993 16.2423 169.135 16.3273 169.26 16.418C169.384 16.4973 169.481 16.5767 169.549 16.656C169.243 17.0187 168.971 17.4323 168.733 17.897C168.506 18.3617 168.274 18.9567 168.036 19.682C168.648 19.138 169.186 18.6167 169.651 18.118C170.127 17.6193 170.569 17.064 170.977 16.452C171.045 16.3953 171.164 16.367 171.334 16.367C171.492 16.367 171.645 16.3953 171.793 16.452C171.94 16.4973 172.042 16.5653 172.099 16.656C171.895 17.2 171.793 17.7383 171.793 18.271C171.793 18.7697 171.866 19.1437 172.014 19.393C172.002 19.461 171.923 19.5913 171.776 19.784C171.64 19.9767 171.487 20.158 171.317 20.328C171.011 20.1693 170.739 19.954 170.501 19.682C170.263 19.3987 170.087 19.0927 169.974 18.764C169.441 19.138 168.988 19.5063 168.614 19.869C168.24 20.2203 167.917 20.617 167.645 21.059C167.384 21.4897 167.157 21.9883 166.965 22.555C166.783 23.1217 166.608 23.796 166.438 24.578C166.336 24.5667 166.211 24.527 166.064 24.459C165.928 24.4023 165.786 24.3287 165.639 24.238C165.503 24.1473 165.378 24.051 165.265 23.949C165.151 23.847 165.078 23.7507 165.044 23.66ZM177.908 17.234C177.896 17.4493 177.857 17.676 177.789 17.914C177.732 18.1407 177.658 18.3503 177.568 18.543C177.477 18.7243 177.381 18.8773 177.279 19.002C177.177 19.1267 177.08 19.189 176.99 19.189C176.865 19.1777 176.791 19.0927 176.769 18.934C176.769 18.9 176.78 18.849 176.803 18.781C176.837 18.7017 176.871 18.6167 176.905 18.526C176.939 18.4353 176.967 18.3447 176.99 18.254C177.024 18.1633 177.041 18.084 177.041 18.016C177.041 17.8573 177.001 17.727 176.922 17.625C176.854 17.5117 176.757 17.455 176.633 17.455C176.179 17.455 175.834 17.7383 175.596 18.305C175.358 18.8717 175.239 19.7047 175.239 20.804C175.239 20.9173 175.244 20.9853 175.256 21.008C175.494 20.9967 175.703 20.991 175.885 20.991C176.077 20.9797 176.264 20.974 176.446 20.974C176.457 20.9967 176.463 21.042 176.463 21.11C176.463 21.212 176.44 21.2857 176.395 21.331C176.134 21.3877 175.924 21.4387 175.766 21.484C175.618 21.518 175.505 21.552 175.426 21.586C175.346 21.62 175.295 21.6597 175.273 21.705C175.261 21.739 175.256 21.79 175.256 21.858C175.256 21.9487 175.256 22.0393 175.256 22.13C175.267 22.2207 175.273 22.334 175.273 22.47C175.273 23.422 175.012 24.187 174.491 24.765C173.981 25.343 173.267 25.6773 172.349 25.768C172.19 25.7567 172.026 25.7113 171.856 25.632C171.686 25.5527 171.521 25.4507 171.363 25.326C171.215 25.2013 171.085 25.0597 170.972 24.901C170.858 24.7537 170.779 24.6007 170.734 24.442C170.734 24.0113 170.824 23.6033 171.006 23.218C171.187 22.8213 171.431 22.4757 171.737 22.181C172.054 21.875 172.422 21.6313 172.842 21.45C173.272 21.2573 173.737 21.144 174.236 21.11C174.236 20.8267 174.207 20.549 174.151 20.277C174.094 20.005 174.032 19.7443 173.964 19.495C173.907 19.2343 173.85 18.985 173.794 18.747C173.737 18.4977 173.709 18.254 173.709 18.016C173.709 17.71 173.771 17.4097 173.896 17.115C174.02 16.809 174.185 16.5313 174.389 16.282C174.593 16.0213 174.831 15.8003 175.103 15.619C175.375 15.4377 175.658 15.313 175.953 15.245C176.077 15.279 176.242 15.381 176.446 15.551C176.661 15.7097 176.871 15.891 177.075 16.095C177.279 16.299 177.46 16.5087 177.619 16.724C177.777 16.928 177.874 17.098 177.908 17.234ZM172.298 24.986C172.57 24.8727 172.825 24.7083 173.063 24.493C173.312 24.2777 173.527 24.034 173.709 23.762C173.89 23.49 174.032 23.201 174.134 22.895C174.247 22.589 174.304 22.2887 174.304 21.994C174.077 22.028 173.828 22.1357 173.556 22.317C173.284 22.487 173.029 22.6967 172.791 22.946C172.553 23.184 172.354 23.4333 172.196 23.694C172.037 23.9547 171.958 24.1813 171.958 24.374C171.958 24.6233 172.071 24.8273 172.298 24.986Z" fill="#333333"/>
</svg>
